<?xml version="1.0" encoding="utf-8"?>
<!-- Generator: Adobe Illustrator 21.0.1, SVG Export Plug-In . SVG Version: 6.00 Build 0)  -->
<svg version="1.1" id="Layer_1" xmlns="http://www.w3.org/2000/svg" xmlns:xlink="http://www.w3.org/1999/xlink" x="0px" y="0px"
	 viewBox="0 0 20 20" style="enable-background:new 0 0 20 20;" xml:space="preserve">
<style type="text/css">
	.st0{fill:#FF9999;}
	.st1{fill:#D3D3D3;}
	.st2{fill:#999999;}
</style>
<g>
	<path class="st0" d="M10,0C4.5,0,0,4.5,0,10v10h6.3V10c0-2.1,1.7-3.8,3.8-3.8s3.8,1.7,3.8,3.8v10H20V10C20,4.5,15.5,0,10,0z"/>
	<rect y="15" class="st1" width="6.3" height="5"/>
	<rect x="13.8" y="15" class="st1" width="6.3" height="5"/>
	<path class="st2" d="M10,1c5,0,9,4,9,9v9h-4.3v-9c0-2.6-2.1-4.8-4.8-4.8S5.3,7.4,5.3,10v9H1v-9C1,5,5,1,10,1 M10,0
		C4.5,0,0,4.5,0,10v10h6.3V10c0-2.1,1.7-3.8,3.8-3.8s3.8,1.7,3.8,3.8v10H20V10C20,4.5,15.5,0,10,0L10,0z"/>
</g>
</svg>
