<?xml version="1.0" encoding="utf-8"?>
<!-- Generator: Adobe Illustrator 21.0.1, SVG Export Plug-In . SVG Version: 6.00 Build 0)  -->
<svg version="1.1" id="Layer_1" xmlns="http://www.w3.org/2000/svg" xmlns:xlink="http://www.w3.org/1999/xlink" x="0px" y="0px"
	 viewBox="0 0 20 20" style="enable-background:new 0 0 20 20;" xml:space="preserve">
<style type="text/css">
	.st0{fill:#C90000;}
	.st1{fill:#C6C6C6;}
</style>
<g>
	<path class="st0" d="M10,2c-4.418,0-8,3.582-8,8v4h5v-4c0-1.657,1.343-3,3-3s3,1.343,3,3v4h5v-4C18,5.582,14.418,2,10,2z"/>
	<rect x="2" y="14" class="st1" width="5" height="4"/>
	<rect x="13" y="14" class="st1" width="5" height="4"/>
	<path d="M10,2.25c4.273,0,7.75,3.477,7.75,7.75v7.75h-4.5V10c0-1.792-1.458-3.25-3.25-3.25S6.75,8.208,6.75,10v7.75h-4.5V10
		C2.25,5.727,5.727,2.25,10,2.25 M10,2c-4.418,0-8,3.582-8,8v8h5v-8c0-1.657,1.343-3,3-3s3,1.343,3,3v8h5v-8C18,5.582,14.418,2,10,2
		L10,2z"/>
</g>
</svg>
