<?xml version="1.0" encoding="utf-8"?>
<!-- Generator: Adobe Illustrator 21.0.1, SVG Export Plug-In . SVG Version: 6.00 Build 0)  -->
<svg version="1.1" id="Layer_1" xmlns="http://www.w3.org/2000/svg" xmlns:xlink="http://www.w3.org/1999/xlink" x="0px" y="0px"
	 viewBox="0 0 1000 300" style="enable-background:new 0 0 1000 300;" xml:space="preserve">
<style type="text/css">
	.st0{display:none;fill:#2B3135;}
	.st1{fill:#8E603D;}
	.st2{fill:#FFFFFF;}
	.st3{fill:#DA0C87;}
</style>
<rect class="st0" width="1000" height="300"/>
<g id="logo-tpb_1_">
	<path class="st1" d="M319.35,199.994c0.414,0.882,0.486,1.655,0.397,2.441c-0.03,0.275-0.137,0.569-0.288,0.801
		c-0.786,1.192-2.803,1.849-4.16,1.393c-0.659-0.22-1.182-0.634-1.399-1.268c-0.37-1.086-0.702-2.194-0.915-3.319
		c-0.182-0.968,0.345-1.742,1.048-2.374c0.953-0.856,2.114-1.251,3.359-1.344c4.636-0.347,8.668,3.245,9.334,6.707
		c0.446,2.315-0.028,4.46-1.165,6.457c-0.59,1.036-1.514,1.731-2.786,1.826c-1.04,0.078-2.078,0.262-3.116,0.262
		c-31.861-0.009-63.723-0.038-95.584-0.057c-25.287-0.017-50.574-0.027-75.861-0.044c-0.649,0-1.306,0.002-1.945-0.085
		c-1.543-0.211-2.52-1.217-2.454-2.759c0.051-1.175,0.275-2.376,0.638-3.494c0.44-1.359,2.621-1.719,3.636-0.702
		c0.586,0.586,0.524,1.002-0.207,1.418c-0.18,0.102-0.347,0.224-0.497,0.321c-0.023,0.548,0.34,0.668,0.693,0.738
		c1.513,0.302,2.945,0.156,4.209-0.826c0.4-0.309,0.776-0.651,1.188-0.941c1.076-0.757,1.824-1.721,2.107-3.037
		c0.08-0.376,0.269-0.755,0.501-1.063c0.457-0.609,0.934-0.583,1.378,0.049c1.186,1.695,2.778,2.921,4.547,3.934
		c0.951,0.545,1.968,0.894,3.094,0.827c1.387-0.082,3.27-1.558,3.638-2.873c0.195-0.698-0.161-1.302-0.913-1.435
		c-0.799-0.14-1.458,0.123-2.046,0.719c-0.499,0.507-1.106,0.907-1.685,1.329c-0.123,0.089-0.328,0.068-0.49,0.099
		c-0.034-0.123-0.085-0.203-0.065-0.243c0.922-1.756,1.682-3.629,2.816-5.236c2.101-2.972,4.931-4.923,8.704-5.213
		c0.628-0.047,1.247-0.214,1.942-0.34c-0.091-0.934-0.211-1.718-0.233-2.505c-0.047-1.513-0.118-3.031-0.034-4.54
		c0.08-1.454,0.545-2.826,1.332-4.077c0.197-0.311,0.281-0.695,0.48-1.209c-0.588-0.038-1.006-0.108-1.416-0.082
		c-1.368,0.087-2.737,0.205-4.103,0.321c-2.809,0.239-5.553-0.059-8.22-0.985c-1.363-0.473-2.727-0.951-4.06-1.499
		c-3.53-1.456-6.656-3.558-9.064-6.512c-2.936-3.6-4.686-7.696-4.149-12.497c0.028-0.251,0.032-0.505,0.038-0.757
		c0.002-0.066-0.04-0.135-0.083-0.27c-0.27-0.055-0.571-0.116-0.841-0.171c-0.317-0.626-0.019-1.051,0.355-1.399
		c0.687-0.638,1.385-1.27,2.131-1.835c1.122-0.85,2.293-1.634,3.431-2.463c0.437-0.319,0.867-0.655,1.254-1.029
		c0.945-0.915,0.879-1.938-0.129-2.773c-2.697-2.236-5.403-4.458-8.077-6.72c-2.04-1.727-4.044-3.496-6.048-5.265
		c-0.649-0.573-1.266-1.184-1.862-1.812c-0.471-0.497-0.829-1.07-0.812-1.839c0.465-0.192,0.822,0.019,1.143,0.211
		c0.774,0.461,1.568,0.907,2.276,1.461c2.701,2.116,5.358,4.287,8.055,6.409c1.275,1.002,2.613,1.923,3.898,2.911
		c0.571,0.438,1.057,0.987,1.621,1.435c0.733,0.583,1.463,1.182,2.27,1.649c0.746,0.433,1.124,0.171,1.209-0.71
		c0.366-3.773,0.717-7.548,1.084-11.323c0.397-4.097,0.801-8.193,1.211-12.289c0.465-4.635,0.939-9.267,1.416-13.9
		c0.695-6.789,1.401-13.575,2.09-20.364c0.583-5.747,1.161-11.493,1.718-17.244c0.154-1.592,0.095-3.179-0.505-4.697
		c-0.613-1.551-1.108-1.645-2.088-0.321c-1.475,1.995-2.467,4.23-3.156,6.61c-0.199,0.685-0.511,1.338-0.706,2.023
		c-0.858,2.983-1.571,5.992-1.974,9.081c-0.476,3.659-1.213,7.269-2.999,10.565c-0.351,0.647-0.641,1.366-1.378,1.788
		c-0.406-0.562-0.473-1.048-0.123-1.628c0.271-0.454,0.539-0.962,0.611-1.473c0.325-2.285,0.736-4.574,0.82-6.872
		c0.112-3.152,0.526-6.255,1.025-9.356c0.323-1.995,0.585-4.001,0.928-5.992c0.121-0.7,0.332-1.408,0.632-2.052
		c1.541-3.304,3.114-6.593,4.705-9.873c0.277-0.571,0.429-1.129,0.399-1.761c-0.065-1.298-0.095-2.598-0.135-3.898
		c-0.009-0.275-0.002-0.55-0.002-1.013c0.619,0.389,0.778,0.871,0.936,1.308c0.71,1.968,1.442,3.93,2.061,5.929
		c1.839,5.927,3.636,11.867,5.432,17.808c0.323,1.068,0.526,2.175,0.864,3.24c0.135,0.421,0.412,0.862,0.752,1.141
		c0.744,0.615,1.143,0.573,1.938-0.006c1.429-1.038,2.862-2.072,4.285-3.12c1.247-0.917,2.484-1.847,3.718-2.778
		c0.554-0.418,0.879-0.985,1.222-1.598c0.719-1.279,1.63-2.452,2.496-3.644c0.19-0.262,0.514-0.435,0.901,0.057
		c-0.161,0.249-0.317,0.558-0.537,0.814c-2.296,2.666-3.029,5.838-2.594,9.205c0.75,5.796,2.786,11.125,6.517,15.703
		c1.687,2.069,3.454,4.075,5.255,6.047c0.698,0.767,1.57,1.382,2.397,2.019c0.334,0.258,0.746,0.452,1.152,0.575
		c0.6,0.182,0.831,0.008,1.055-0.579c0.243-0.64,0.29-1.268-0.076-1.869c-0.697-1.137-1.406-2.264-2.118-3.391
		c-0.575-0.911-1.272-1.761-1.719-2.729c-1.742-3.748-2.276-7.728-2.074-11.829c0.044-0.901,0.076-1.805,0.093-2.706
		c0.006-0.275-0.063-0.552-0.114-0.955c-1.072,0.351-1.488,1.63-2.644,1.625c-0.311-0.427-0.102-0.82,0.087-1.129
		c0.448-0.734,0.894-1.499,1.48-2.118c1.243-1.308,2.551-2.556,3.879-3.779c0.968-0.89,1.78-1.873,2.446-3.01
		c2.995-5.109,6.033-10.19,9.024-15.301c0.837-1.431,1.589-2.913,2.325-4.399c0.182-0.368,0.201-0.839,0.214-1.264
		c0.065-2.084-0.399-4.096-0.966-6.073c-1.091-3.8-1.64-7.688-2.069-11.604c-0.161-1.467-0.419-2.925-0.67-4.638
		c-0.425,0.402-0.706,0.647-0.964,0.913c-1.256,1.296-2.427,2.689-3.779,3.875c-2.405,2.11-3.414,4.758-3.433,7.872
		c-0.01,1.554-0.087,3.095-0.425,4.627c-0.254,1.156-0.666,2.232-1.414,3.126c-0.947,1.131-1.957,2.219-3.008,3.257
		c-1.336,1.319-2.765,2.541-4.111,3.851c-2.169,2.11-3.879,4.559-5.185,7.292c-0.622,1.304-1.249,2.604-1.905,3.889
		c-0.292,0.571-0.579,1.177-1.254,1.429c-0.535-0.121-0.638-0.577-0.695-0.991c-0.101-0.712-0.232-1.446-0.154-2.15
		c0.184-1.683,0.404-3.363,1.082-4.952c0.423-0.994,0.757-2.029,1.089-3.057c0.152-0.469,0.203-0.968,0.29-1.406
		c-0.558-0.501-1.053-0.252-1.497-0.065c-0.564,0.237-1.067,0.615-1.628,0.852c-1.027,0.431-2.067,0.833-3.124,1.179
		c-0.355,0.116-0.778,0.019-1.372,0.019c0.317-0.514,0.528-0.955,0.826-1.321c1.676-2.057,3.636-3.815,5.807-5.333
		c1.006-0.704,2.04-1.366,3.046-2.071c1.579-1.105,2.995-2.38,4.115-3.965c0.641-0.909,0.985-1.896,1.053-3.019
		c0.101-1.657,0.281-3.31,0.454-4.961c0.186-1.767,0.896-3.335,1.947-4.743c0.245-0.328,0.655-0.567,1.034-0.755
		c1.761-0.871,3.027-2.183,3.72-4.031c0.165-0.438,0.317-0.883,0.482-1.321c0.421-1.112,1.05-2.05,2.145-2.617
		c0.848-0.44,1.366-1.141,1.592-2.078c0.41-1.708,1.179-3.224,2.251-4.635c1.327-1.742,1.294-4.027,0.093-5.861
		c-0.476-0.727-0.848-1.494-0.89-2.486c1.019-0.306,1.998,0.036,2.966,0.008c0.013,0.114,0.034,0.159,0.021,0.184
		c-0.901,1.543-0.721,3.122-0.108,4.686c0.512,1.31,0.408,2.703,0.649,4.044c0.678,3.763,1.393,7.521,2.156,11.269
		c0.881,4.314,1.894,8.601,2.38,12.987c0.142,1.292,0.161,2.598,0.334,3.885c0.129,0.957,0.347,1.917,0.655,2.832
		c0.311,0.926,0.964,1.105,1.786,0.577c3.492-2.247,6.999-4.469,10.45-6.781c2.424-1.625,4.767-3.369,7.138-5.071
		c1.976-1.42,3.693-3.112,5.28-4.957c1.482-1.725,3.002-3.418,4.561-5.075c0.535-0.569,1.222-1.006,1.864-1.469
		c0.262-0.19,0.659-0.353,0.858,0.002c0.127,0.226,0.104,0.653-0.03,0.886c-0.247,0.431-0.604,0.807-0.955,1.165
		c-1.061,1.084-2.152,2.139-3.209,3.226c-0.503,0.518-0.943,1.095-1.431,1.626c-2.518,2.744-3.479,6.096-3.75,9.7
		c-0.125,1.663-0.025,3.316,0.383,4.948c0.837,3.35,2.835,5.699,5.992,7.081c1.571,0.687,3.226,1.042,4.919,1.215
		c1.831,0.188,3.67,0.313,5.504,0.474c0.721,0.063,1.256-0.131,1.816-0.687c3.9-3.875,8.074-7.44,12.49-10.715
		c0.53-0.393,1.057-0.829,2-0.987c-0.715,1.602-1.317,3.014-2.52,4.046c-0.71,0.609-1.473,1.173-2.272,1.655
		c-0.71,0.429-1.243,0.985-1.619,1.697c-0.624,1.18-1.264,2.355-1.826,3.564c-2.862,6.153-5.775,12.283-8.529,18.483
		c-2.959,6.665-4.896,13.644-5.899,20.876c-0.357,2.577-0.676,5.151-0.497,7.768c0.076,1.11-0.034,2.238-0.104,3.354
		c-0.454,7.263,0.184,14.428,1.932,21.491c0.051,0.207,0.133,0.408,0.22,0.605c0.019,0.044,0.118,0.051,0.235,0.097
		c0.243-0.374,0.055-0.746-0.023-1.103c-0.142-0.66-0.07-1.184,0.602-1.562c0.362-0.203,0.632-0.579,0.936-0.884
		c0.101-0.102,0.18-0.226,0.258-0.347c3.555-5.578,7.722-10.723,11.457-16.172c0.368-0.535,0.759-1.063,1.063-1.634
		c1.552-2.919,3.505-5.551,5.639-8.062c1.019-1.199,1.759-2.536,2.129-4.088c0.205-0.856,0.137-1.499-0.537-2.146
		c-0.507-0.488-0.907-1.131-1.209-1.773c-0.816-1.735-1.055-3.593-0.913-5.494c0.108-1.448,1.086-2.283,2.306-2.735
		c0.993-0.368,1.471-1.01,1.609-1.96c0.171-1.179,0.279-2.367,0.395-3.551c0.545-5.57,1.099-11.139,2.202-16.633
		c0.233-1.167,0.52-2.323,0.809-3.479c0.082-0.323,0.26-0.621,0.393-0.93c0.091,0.006,0.184,0.013,0.275,0.019
		c0.08,0.393,0.22,0.784,0.226,1.177c0.021,1.511,0.129,3.019-0.326,4.515c-0.194,0.636-0.135,1.363-0.108,2.044
		c0.076,1.949,0.055,3.862-0.393,5.804c-0.427,1.85-0.473,3.792-0.674,5.694c-0.163,1.543-0.319,3.088-0.448,4.633
		c-0.038,0.465-0.004,0.939,0.044,1.406c0.072,0.691,0.357,1.262,1.087,1.461c0.854,0.233,1.093,0.841,1.084,1.644
		c-0.011,0.939-0.017,1.879,0.015,2.816c0.015,0.444,0.121,0.884,0.209,1.488c0.321-0.251,0.488-0.366,0.636-0.501
		c0.721-0.651,1.38-1.391,2.169-1.947c2.503-1.767,4.616-3.932,6.57-6.263c2.146-2.558,4.513-4.864,7.271-6.77
		c0.886-0.613,1.668-1.376,2.486-2.086c0.666-0.579,1.175-1.27,1.414-2.137c0.184-0.672,0.628-1.097,1.247-1.41
		c0.37-0.188,0.715-0.48,0.987-0.799c1.96-2.313,3.898-4.644,5.842-6.971c0.37-0.442,0.725-0.9,1.108-1.33
		c0.685-0.769,1.478-1.334,2.716-1.353c-0.205,0.319-0.328,0.522-0.463,0.717c-0.556,0.799-1.148,1.577-1.67,2.401
		c-0.623,0.985-1.329,1.886-2.222,2.64c-0.958,0.807-1.642,1.818-2.131,2.963c-0.939,2.198-2.12,4.264-3.412,6.271
		c-3.817,5.927-6.5,12.391-8.907,18.979c-1.972,5.396-3.657,10.882-4.667,16.547c-0.715,4.018-1.291,8.064-1.213,12.161
		c0.112,5.783,1.384,11.357,2.923,16.912c1.57,5.667,4.83,10.18,8.854,14.276c1.291,1.313,2.52,2.685,3.777,4.033
		c3.105,3.331,6.682,6.039,10.62,8.32c1.33,0.771,2.492,1.835,3.701,2.801c0.313,0.249,0.518,0.634,0.772,0.957
		c-0.049,0.078-0.101,0.156-0.15,0.233c-0.395-0.099-0.82-0.137-1.177-0.311c-0.907-0.44-1.786-0.941-2.676-1.42
		c-2.287-1.23-4.547-2.517-6.87-3.674c-2.249-1.12-4.654-1.689-7.178-1.886c-2.48-0.195-4.938-0.653-7.415-0.907
		c-2.837-0.29-5.68-0.53-8.527-0.693c-0.919-0.053-1.871,0.133-2.778,0.338c-0.839,0.19-1.057,0.533-1.053,1.403
		c0.002,0.645,0.047,1.306,0.188,1.932c0.302,1.351,0.457,2.703,0.298,4.082c-0.034,0.287-0.008,0.579-0.036,0.865
		c-0.068,0.683,0.156,1.179,0.803,1.494c1.12,0.547,1.94,1.368,2.241,2.627c0.114,0.474,0.484,0.615,0.907,0.604
		c1.461-0.04,2.285,0.725,2.63,2.076c0.159,0.619,0.539,1.01,1.118,1.222c0.607,0.222,1.213,0.48,1.841,0.615
		c1.338,0.285,2.293,1.002,2.839,2.262c0.201,0.463,0.425,0.917,0.607,1.387c0.349,0.898,0.93,1.532,1.89,1.773
		c0.175,0.044,0.336,0.14,0.512,0.175c1.708,0.328,2.53,1.511,3.023,3.056c0.736,2.308,0.461,4.409-1.124,6.301
		c-0.461,0.55-0.924,1.125-1.243,1.761c-0.771,1.539-0.44,2.704,1,3.625c0.664,0.425,1.38,0.801,2.118,1.078
		c3.967,1.484,7.694,3.462,11.454,5.384c2.116,1.082,4.287,2.078,6.498,2.949c2.262,0.89,4.648,1.342,7.1,1.236
		c1.871-0.082,2.927-0.996,3.357-2.797c0.159-0.67,0.072-1.294-0.205-1.898c-0.776-1.689-3.502-2.856-5.284-2.276
		c-0.941,0.307-1.325,0.994-1.08,1.932c0.142,0.545,0.518,0.865,1.07,0.915c0.949,0.082,1.731-0.495,1.97-1.44
		C319.133,200.497,319.224,200.316,319.35,199.994z M224.751,101.459c-0.596-0.423-1.137-0.518-1.704-0.019
		c-0.15,0.133-0.391,0.175-0.598,0.232c-2.539,0.691-4.65,2.224-6.863,3.541c-2.135,1.27-4.185,2.682-6.324,3.948
		c-1.141,0.676-2.391,1.161-3.583,1.752c-0.81,0.402-1.672,0.82-1.947,1.754c-0.476,1.611-1.067,3.198-1.097,4.919
		c-0.053,3.073,0.165,6.13,0.522,9.178c0.144,1.236,0.438,2.456,0.685,3.792c0.848-0.038,1.638,0.07,2.334-0.135
		c1.581-0.465,3.133-1.042,4.665-1.651c3.481-1.384,6.939-2.826,10.414-4.223c1.336-0.537,2.684-1.05,4.044-1.514
		c1.56-0.533,2.919-2.405,2.48-4.399c-0.14-0.634-0.23-1.287-0.45-1.892c-0.839-2.325-1.114-4.766-1.488-7.182
		C225.434,106.887,225.117,104.199,224.751,101.459z M218.444,86.029c0.29-0.214,0.501-0.347,0.683-0.509
		c2.08-1.845,4.154-3.695,6.233-5.542c2.97-2.636,6.007-5.202,8.897-7.924c3.737-3.517,7.51-6.986,11.533-10.176
		c0.706-0.56,1.387-1.156,2.05-1.769c0.266-0.245,0.45-0.577,0.829-1.082c-0.715,0.066-1.146,0.072-1.56,0.154
		c-1.275,0.245-2.539,0.558-3.818,0.776c-3.771,0.643-7.286,1.942-10.672,3.737c-4.576,2.427-8.652,5.627-13.105,8.242
		c-1.336,0.786-1.674,2.148-1.074,3.555c0.569,1.334,0.782,2.693,0.459,4.124c-0.277,1.232-0.518,2.471-0.805,3.701
		C217.886,84.22,217.86,85.09,218.444,86.029z M228.937,134.893c0.605,0.786,1.04,1.454,1.577,2.027
		c0.776,0.829,1.771,0.911,2.803,0.571c0.924-0.306,1.23-1.146,0.729-1.979c-0.26-0.431-0.605-0.81-0.86-1.245
		c-0.359-0.617-0.29-1.061,0.169-1.564c1.11-1.217,0.89-2.799-0.514-3.695c-0.993-0.632-2.479-0.049-2.9,1.013
		c-0.473,1.198-1.211,2.253-2.575,2.558c-1.702,0.38-3.429,0.385-5.156,0.139c-0.051-0.008-0.091-0.101-0.137-0.154
		c0.008-0.07-0.009-0.161,0.028-0.205c0.118-0.131,0.243-0.266,0.391-0.357c2.684-1.649,5.519-2.974,8.516-3.944
		c0.543-0.176,1.125-0.258,1.695-0.317c0.214-0.023,0.567,0.076,0.657,0.232c0.714,1.249,1.9,1.182,3.05,1.089
		c1.061-0.085,1.938-0.936,2.129-1.886c0.093-0.459,0-0.827-0.37-1.163c-0.613-0.556-1.205-1.137-1.761-1.748
		c-0.672-0.738-0.697-0.939-0.213-1.807c0.402-0.719,0.357-1.372-0.118-2.019c-0.974-1.325-3.262-1.196-4.018,0.247
		c-0.543,1.04-0.788,2.171-0.778,3.342c0.006,0.581-0.216,0.96-0.744,1.188c-0.298,0.129-0.583,0.287-0.871,0.435
		c-3.978,2.042-7.984,4.033-11.92,6.157c-1.45,0.782-2.913,1.167-4.53,1.215c-2.932,0.085-5.844-0.059-8.743-0.503
		c-0.298-0.046-0.611-0.006-0.919-0.006c0.044,1.562,0.459,1.979,1.839,1.968c1.408-0.009,2.815-0.021,4.223-0.002
		c0.37,0.006,0.738,0.123,1.342,0.23c-0.34,0.385-0.478,0.668-0.698,0.767c-0.82,0.368-1.657,0.708-2.509,0.994
		c-0.757,0.254-1.477,0.281-1.989-0.55c-0.222-0.362-0.678-0.482-1.057-0.23c-0.389,0.258-0.237,0.664-0.032,0.964
		c0.888,1.306,1.27,2.82,1.812,4.27c0.093,0.249,0.235,0.478,0.378,0.765c0.655-0.44,0.955-1.08,0.913-1.63
		c-0.118-1.589,0.854-2.078,2.086-2.501c0.742-0.256,1.42-0.702,2.126-1.065c0.803-0.412,1.602-0.827,2.406-1.236
		c0.788-0.4,1.609-0.55,2.507-0.514c2.272,0.091,4.547,0.12,6.821,0.148C225.489,134.91,227.258,134.893,228.937,134.893z
		 M178.874,179.053c-0.399-0.977-1.141-1.327-1.774-1.773c-1.83-1.287-3.726-2.482-5.498-3.841c-2.896-2.22-5.845-4.356-8.947-6.286
		c-1.131-0.704-2.183-1.533-3.259-2.323c-0.251-0.184-0.454-0.431-0.784-0.752c0.712-0.569,1.33-1.067,2-1.602
		c-1.298-0.127-2.306,0.355-2.976,1.317c-0.653,0.938-1.236,1.964-1.64,3.029c-0.752,1.983-0.495,3.946,0.746,5.665
		c0.689,0.953,1.522,1.849,2.439,2.583c2.342,1.875,5.081,3.016,7.929,3.862c0.989,0.294,2.059,0.423,3.094,0.425
		c2.49,0.006,4.98-0.104,7.47-0.177C178.022,179.172,178.369,179.11,178.874,179.053z M161.742,116.002
		c-1.065,5.697-3.037,29.003-2.756,30.656c0.52-0.177,1.053-0.287,1.516-0.531c0.602-0.319,1.179-0.704,1.712-1.129
		c1.816-1.448,3.784-2.606,6.009-3.316c0.376-0.12,0.755-0.266,1.089-0.469c0.298-0.182,0.537-0.465,0.801-0.702
		c-0.061-0.085-0.12-0.171-0.18-0.256c-1.998,0.909-4.014,1.78-6.086,2.925c-0.852-0.421-1.454-1.256-1.909-2.207
		c-0.393-0.82-0.336-0.968,0.391-1.594c0.08-0.068,0.182-0.14,0.211-0.232c0.338-1.031,1.264-1.431,2.071-1.964
		c0.871-0.575,1.778-1.108,2.594-1.754c0.786-0.621,1.285-1.452,1.262-2.422c-0.473-0.52-0.953-0.922-1.275-1.427
		c-1.869-2.911-3.137-6.085-3.951-9.438c-0.418-1.716-0.763-3.448-1.158-5.17C162.007,116.638,161.858,116.325,161.742,116.002z
		 M210.676,81.77c-0.288,0.378-0.492,0.622-0.672,0.884c-1.628,2.338-3.268,4.667-4.87,7.022c-0.729,1.072-1.459,2.154-2.059,3.3
		c-1.258,2.41-2.205,4.934-2.412,7.683c-0.025,0.338-0.004,0.679-0.004,1.234c0.569-0.317,0.966-0.48,1.294-0.733
		c0.685-0.526,1.387-1.048,1.989-1.663c1.511-1.547,2.999-3.12,4.441-4.733c1.287-1.439,2.689-2.704,4.39-3.64
		c0.531-0.292,1.04-0.662,1.473-1.087c1.587-1.558,1.473-3.41-0.197-4.87c-0.812-0.708-1.545-1.507-2.306-2.272
		C211.414,82.567,211.103,82.224,210.676,81.77z M165.909,72.038c-0.099,0.019-0.199,0.04-0.298,0.059
		c-0.087,0.268-0.22,0.528-0.252,0.801c-0.159,1.325-0.296,2.653-0.431,3.98c-0.249,2.439-0.165,4.896-0.632,7.33
		c-0.461,2.406-0.75,4.851-0.994,7.292c-0.287,2.837-0.457,5.684-0.647,8.531c-0.04,0.607,0.021,1.23,0.11,1.833
		c0.093,0.63,0.512,0.793,0.979,0.349c0.41-0.389,0.805-0.858,1.031-1.37c0.683-1.549,1.41-3.095,1.888-4.712
		c0.919-3.107,1.552-6.295,2.636-9.36c0.645-1.824,0.507-3.608-0.328-5.361c-1.015-2.127-1.678-4.375-2.139-6.684
		c-0.112-0.566-0.256-1.127-0.437-1.676C166.28,72.697,166.075,72.374,165.909,72.038z M281.056,184.243
		c0.271,0.416,0.467,0.702,0.647,0.996c0.643,1.044,1.258,2.103,1.93,3.128c0.448,0.683,0.698,0.776,1.45,0.444
		c0.822-0.363,1.661-0.452,2.534-0.431c0.288,0.006,0.577-0.009,0.864-0.036c1.852-0.178,2.923-1.714,2.463-3.524
		c-0.266-1.05-0.864-1.877-1.892-2.202c-1.401-0.442-2.847-0.746-4.278-1.097c-0.461-0.112-1.012-0.019-1.359-0.706
		c0.501-0.216,0.947-0.402,1.387-0.598c1.351-0.604,1.471-1.683,0.283-2.547c-1.962-1.427-5.291-1.674-7.267-0.268
		c-1.812,1.289-3.429,2.851-5.124,4.301c-0.287,0.245-0.33,0.539-0.074,0.856c0.243,0.302,0.547,0.366,0.862,0.178
		c0.307-0.182,0.586-0.418,0.864-0.649c1.053-0.877,2.088-1.776,3.16-2.63c0.406-0.325,0.892-0.547,1.363-0.827
		c0.374,1.082,0.362,1.733,0.036,2.488c-0.522,1.209-0.537,2.452-0.182,3.703c0.159,0.56,0.433,1.057,1.122,1.338
		C280.229,185.555,280.599,184.968,281.056,184.243z M262.059,173.773c0.469-0.302,0.81-0.492,1.118-0.725
		c2.145-1.634,4.439-2.944,7.111-3.526c1.103-0.241,1.311-0.566,1.429-1.727c0.04-0.395,0.08-0.795,0.053-1.188
		c-0.152-2.302-0.307-4.602-0.499-6.901c-0.065-0.784-0.317-1.021-1.236-1.05c-1.74-0.053-3.454,0.165-5.101,0.772
		c-0.731,0.269-1.194,0.782-1.37,1.547c-0.283,1.23-0.672,2.444-0.831,3.689c-0.349,2.716-0.588,5.447-0.852,8.174
		C261.858,173.092,261.977,173.361,262.059,173.773z M178.889,121.045c-0.351-0.163-0.634-0.249-0.864-0.408
		c-1.896-1.315-2.462-2.585-1.886-4.593c0.203-0.712,0.474-1.347,1.268-1.628c0.509-0.18,0.672-0.666,0.583-1.158
		c-0.044-0.239-0.26-0.541-0.478-0.638c-0.45-0.197-0.731,0.188-0.989,0.48c-1.311,1.49-2.706,2.919-3.898,4.5
		c-2.742,3.631-3.896,7.768-3.547,12.306c0.044,0.566,0.188,1.146,0.408,1.67c0.484,1.154,1.139,1.273,2.071,0.444
		c0.835-0.744,1.718-1.446,2.477-2.26c0.53-0.567,0.93-1.268,1.306-1.955c0.262-0.478,0.175-0.928-0.338-1.315
		c-0.723-0.547-0.628-0.922,0.108-1.492c0.59-0.457,1.143-0.985,1.63-1.552c0.562-0.653,0.736-1.397,0.158-2.173
		c-0.12-0.159-0.167-0.37-0.302-0.679c1.19-0.216,1.19,1.11,2.061,1.321C178.733,121.627,178.809,121.346,178.889,121.045z
		 M227.947,168.781c0.38-0.93,0.372-1.742,0.135-2.558c-0.292-1.004-0.697-1.985-0.882-3.008c-0.505-2.767-0.939-5.547-1.361-8.33
		c-0.135-0.888-0.127-1.797-0.213-2.693c-0.083-0.892-0.378-1.156-1.236-1.125c-0.685,0.023-1.372,0.061-2.053,0.129
		c-1.437,0.142-1.735,0.55-1.596,1.96c0.176,1.795,0.338,3.591,0.45,5.392c0.061,0.97,0.059,1.953-0.017,2.923
		c-0.131,1.682,0.511,2.908,1.905,3.843c1.317,0.884,2.562,1.877,3.845,2.813C227.208,168.335,227.522,168.51,227.947,168.781z
		 M203.472,169.125c0.154,0.571,0.243,1.017,0.393,1.44c1.05,2.968,2.414,5.794,3.87,8.58c0.366,0.702,0.717,1.421,0.977,2.167
		c0.144,0.412,0.26,1.004,0.068,1.321c-0.262,0.431-0.854,0.213-1.298,0.072c-1.065-0.34-2.129-0.681-3.179-1.063
		c-2.835-1.032-5.697-1.217-8.605-0.345c-0.431,0.129-0.919,0.182-1.057,0.82c0.298,0.047,0.537,0.091,0.778,0.123
		c2.393,0.325,4.834,0.45,7.172,1.012c5.599,1.344,10.951,3.405,15.974,6.248c0.805,0.455,1.471,0.619,2.249-0.004
		c0.461-0.368,1.137-0.48,1.387-1.279c-0.391-0.275-0.763-0.621-1.199-0.829c-1.983-0.949-3.963-1.919-5.992-2.761
		c-1.089-0.454-2.26-0.755-3.426-0.958c-0.848-0.148-1.403-0.55-1.733-1.27c-0.222-0.482-0.326-1.021-0.461-1.541
		c-0.154-0.59-0.233-1.205-0.435-1.776c-0.313-0.882-0.662-1.757-1.068-2.6c-1.068-2.207-2.173-4.397-3.276-6.587
		c-0.11-0.22-0.287-0.421-0.476-0.579C204.017,169.216,203.817,169.216,203.472,169.125z M229.359,151.439
		c-0.104,0.023-0.211,0.046-0.315,0.066c0.203,1.091,0.366,2.194,0.617,3.274c0.945,4.075,1.995,8.125,2.627,12.27
		c0.239,1.562,0.672,3.095,1.048,4.635c0.167,0.685,0.566,1.211,1.177,1.619c0.869,0.581,1.668,1.262,2.524,1.866
		c0.814,0.573,1.731,0.949,2.708,1.442c0.188-0.793-0.18-1.264-0.421-1.767c-0.307-0.647-0.778-1.273-0.881-1.953
		c-0.321-2.101-1.118-4.027-1.978-5.935c-2.164-4.802-4.356-9.59-6.54-14.382C229.75,152.19,229.548,151.817,229.359,151.439z
		 M190.747,185.414c1.42,0.159,2.703,0.325,3.989,0.446c3.53,0.33,6.977,1.036,10.379,2.044c3.304,0.979,6.346,2.553,9.472,3.942
		c1.12,0.497,2.065,0.323,2.932-0.541c0.423-0.423,0.459-0.725-0.006-1.08c-0.454-0.345-0.968-0.628-1.488-0.864
		c-1.346-0.607-2.71-1.175-4.067-1.754c-5.418-2.312-11.108-3.555-16.923-4.299c-0.888-0.114-1.799-0.083-2.699-0.076
		c-0.7,0.008-1.125,0.435-1.33,1.078C190.908,184.617,190.857,184.936,190.747,185.414z M214.861,192.782
		c-0.581-0.233-0.907-0.372-1.239-0.497c-4.044-1.539-8.153-2.837-12.368-3.868c-3.114-0.761-6.257-0.996-9.413-1.247
		c-1.752-0.139-1.706,0.846-1.236,1.97c0.118,0.281,0.499,0.573,0.803,0.632c0.66,0.125,1.349,0.129,2.027,0.135
		c0.719,0.006,1.45-0.139,2.156-0.051c3.194,0.389,6.324,1.089,9.353,2.181c1.932,0.697,3.828,1.49,5.739,2.243
		c0.577,0.228,1.177,0.478,1.765,0.123C213.204,193.945,213.92,193.418,214.861,192.782z M193.715,108.598
		c-0.357,0.036-0.486,0.036-0.611,0.065c-2.617,0.567-5.261,0.831-7.939,0.721c-1.404-0.057-2.676,0.501-3.982,0.879
		c-0.501,0.146-0.911,0.486-0.856,1.099c0.051,0.567,0.283,1.05,0.858,1.264c0.268,0.101,0.554,0.152,0.831,0.224
		c1.587,0.41,2.268,1.224,2.427,2.839c0.051,0.511,0.084,1.057,0.596,1.458c0.218-0.23,0.385-0.412,0.558-0.586
		c0.731-0.744,1.435-1.516,2.202-2.22c1.482-1.363,3.016-2.668,4.492-4.039C192.783,109.849,193.159,109.274,193.715,108.598z
		 M195.842,157.969c0.233,0.26,0.378,0.55,0.607,0.653c1.015,0.448,2.023,1.05,3.094,1.215c3.154,0.488,6.183,1.408,9.216,2.336
		c1.862,0.569,3.712,1.177,5.58,1.721c0.294,0.085,0.793,0.042,0.968-0.15c0.336-0.372-0.011-0.772-0.315-1.002
		c-0.482-0.366-1.002-0.719-1.558-0.949c-2.63-1.084-5.257-2.183-7.929-3.16c-2.488-0.909-5.086-1.349-7.743-1.357
		C197.11,157.273,196.461,157.315,195.842,157.969z M270.89,172.357c-0.457,0.304-0.871,0.579-1.287,0.854
		c-1.444,0.955-2.877,1.926-4.339,2.856c-0.791,0.503-1.672,0.611-2.606,0.45c-0.374-0.065-0.803-0.059-1.158,0.061
		c-0.784,0.26-1.575,0.545-2.296,0.939c-1.769,0.974-3.486,2.044-5.255,3.018c-0.845,0.465-1.733,0.9-2.653,1.169
		c-1.038,0.304-1.955,0.725-2.663,1.551c-0.586,0.683-1.355,1.078-2.202,1.308c-0.695,0.188-1.412,0.294-2.114,0.454
		c-0.368,0.083-0.727,0.207-1.112,0.317c0.697,1.243,0.96,1.283,2.052,0.791c2.017-0.909,3.866-2.093,5.726-3.274
		c2.141-1.359,4.388-2.53,6.866-3.128c1.636-0.395,3.139-1.048,4.602-1.839c0.539-0.292,1.076-0.59,1.632-0.85
		c0.383-0.18,0.795-0.3,1.125,0.108c-0.351,0.761-1.395,0.645-1.681,1.422c0.121,0.083,0.173,0.14,0.235,0.159
		c0.621,0.188,1.103-0.093,1.607-0.418c1.936-1.254,3.612-2.879,5.697-3.927C271.922,173.949,271.856,173.378,270.89,172.357z
		 M225.696,43.041c-0.074-0.061-0.146-0.123-0.22-0.184c-1.619,1.139-3.243,2.274-4.857,3.42c-2.441,1.733-4.896,3.435-7.618,4.712
		c-0.268,0.125-0.539,0.397-0.653,0.666c-0.585,1.389-0.467,2.826-0.112,4.242c0.127,0.509,0.581,0.636,1.031,0.357
		c0.205-0.127,0.38-0.328,0.516-0.531c1.953-2.898,4.534-5.202,7.081-7.548c1.456-1.34,2.807-2.794,4.187-4.213
		C225.307,43.697,225.481,43.35,225.696,43.041z M191.498,192.689c0.427,0.025,0.85,0.04,1.273,0.076
		c1.505,0.129,3.029,0.163,4.511,0.423c3.486,0.613,6.836,1.721,10.117,3.048c0.56,0.226,1.16,0.4,1.757,0.482
		c0.537,0.074,0.975-0.306,1.025-0.752c0.053-0.471-0.235-0.733-0.626-0.9c-1.093-0.465-2.179-0.947-3.285-1.38
		c-3.691-1.446-7.546-2.128-11.486-2.372c-0.898-0.057-1.801-0.091-2.701-0.066c-0.755,0.021-0.85,0.186-0.734,0.955
		C191.367,192.338,191.428,192.469,191.498,192.689z M284.801,80.235c-0.065-0.076-0.129-0.152-0.194-0.226
		c-0.243,0.169-0.511,0.313-0.725,0.514c-0.736,0.689-1.429,1.423-2.183,2.093c-1.989,1.767-4.003,3.507-6.005,5.261
		c-0.975,0.854-1.989,1.666-2.909,2.575c-1.002,0.991-1.459,2.22-1.148,3.646c0.133,0.605,0.476,0.784,1.034,0.533
		c0.245-0.11,0.459-0.33,0.63-0.547c1.319-1.663,2.553-3.395,3.948-4.991c2.369-2.71,4.857-5.316,7.06-8.17
		C284.48,80.7,284.636,80.465,284.801,80.235z M232.541,181.379c-3.228-0.395-5.881-2.053-8.597-3.642
		c-1.858-1.086-3.885-1.883-5.847-2.786c-0.302-0.139-0.649-0.361-1.038-0.025c0.008,0.803,0.427,1.433,1.013,1.921
		c0.577,0.48,1.215,0.911,1.879,1.258c1.564,0.818,3.131,1.642,4.754,2.334c1.587,0.678,3.224,1.249,4.876,1.756
		c0.666,0.205,1.422,0.158,2.135,0.144C232.169,182.33,232.56,182.114,232.541,181.379z M240.129,151.052
		c0.287,2.194,1.273,3.978,2.431,5.692c1.389,2.055,2.983,3.991,3.621,6.474c0.148,0.575,0.575,1.012,1.158,1.203
		c0.251,0.082,0.626,0.135,0.793,0.006c0.163-0.125,0.23-0.53,0.165-0.763c-0.18-0.657-0.387-1.321-0.695-1.926
		c-1.336-2.636-2.693-5.261-4.082-7.87c-0.37-0.697-0.871-1.323-1.327-1.974C241.718,151.211,241.055,150.949,240.129,151.052z
		 M180.322,171.881c-0.063-0.235-0.059-0.328-0.101-0.361c-0.199-0.152-0.397-0.315-0.621-0.421
		c-1.843-0.888-3.401-2.156-4.868-3.558c-0.86-0.822-1.786-1.575-2.638-2.405c-1.589-1.547-3.498-2.498-5.57-3.209
		c-1.241-0.427-2.433-0.421-3.86,0.095c0.611,0.104,1.019,0.173,1.42,0.241c0.543,1.019,0.941,1.414,1.957,1.923
		c0.226,0.112,0.457,0.213,0.695,0.298c1.606,0.575,3.056,1.433,4.504,2.321c2.488,1.524,5.026,2.966,7.555,4.422
		C179.24,171.48,179.745,171.636,180.322,171.881z M295.23,199.986c0.017-0.049,0.032-0.099,0.049-0.146
		c-0.307-0.167-0.615-0.33-0.919-0.499c-3.782-2.105-7.599-4.147-11.336-6.329c-4.919-2.873-9.894-5.663-14.596-8.895
		c-0.326-0.224-0.678-0.414-1.031-0.596c-0.416-0.214-0.841-0.418-1.273-0.596c-0.645-0.268-1.215-0.213-1.805,0.262
		c-0.67,0.539-1.42,0.993-2.177,1.406c-2.689,1.471-5.398,2.908-8.096,4.361c-0.423,0.228-0.831,0.478-1.338,0.771
		c0.774,0.535,1.384,0.488,1.911-0.004c0.679-0.634,1.486-1.006,2.329-1.334c2.065-0.807,3.976-1.875,5.695-3.283
		c0.418-0.342,0.86-0.66,1.315-0.951c1.268-0.81,1.945-0.759,3.173,0.084c0.89,0.611,1.811,1.182,2.748,1.718
		c2.158,1.234,4.346,2.42,6.504,3.655c1.972,1.129,3.915,2.308,5.878,3.45c3.242,1.886,6.481,3.777,9.744,5.627
		c0.841,0.478,1.757,0.824,2.647,1.211C294.827,199.973,295.038,199.958,295.23,199.986z M233.629,150.336
		c-0.097,1.012,0.455,1.666,0.833,2.384c0.824,1.56,1.718,3.088,2.439,4.693c1.283,2.858,2.458,5.764,3.68,8.649
		c0.279,0.659,0.748,1.148,1.401,1.431c0.503,0.218,0.831,0.021,0.748-0.512c-0.087-0.558-0.292-1.11-0.529-1.626
		c-0.48-1.048-1.027-2.063-1.53-3.101c-1.148-2.367-2.243-4.76-3.448-7.098c-0.691-1.342-1.541-2.602-2.35-3.881
		C234.612,150.864,234.335,150.414,233.629,150.336z M203.61,66.472c0.355-0.345,0.664-0.628,0.955-0.93
		c1.422-1.482,2.871-2.94,4.24-4.469c0.592-0.66,1.118-1.427,1.488-2.23c0.621-1.344,0.154-2.556-0.731-3.815
		c-1.298,1.998-2.56,3.828-3.697,5.733c-0.774,1.296-1.399,2.684-2.044,4.052C203.603,65.274,203.339,65.777,203.61,66.472z
		 M231.433,150.573c-0.482,0.715-0.235,1.3,0.015,1.824c0.837,1.756,1.737,3.479,2.598,5.221c0.416,0.837,0.837,1.676,1.194,2.539
		c0.976,2.365,1.909,4.748,2.883,7.113c0.247,0.598,0.571,1.163,0.871,1.738c0.161,0.307,0.412,0.6,0.759,0.357
		c0.224-0.156,0.435-0.501,0.437-0.763c0.004-0.338-0.182-0.687-0.326-1.013c-0.437-0.989-0.873-1.978-1.346-2.949
		c-2.035-4.179-4.075-8.356-6.132-12.526C232.122,151.575,231.754,151.086,231.433,150.573z M237.22,151.082
		c0.008,0.778,0.455,1.391,0.803,2.048c0.896,1.685,1.841,3.35,2.642,5.081c0.998,2.16,1.858,4.382,2.816,6.563
		c0.18,0.41,0.493,0.793,0.829,1.095c0.281,0.252,0.693,0.233,0.989-0.059c0.273-0.269,0.4-0.602,0.178-0.979
		c-0.11-0.186-0.23-0.368-0.328-0.56c-0.826-1.602-1.699-3.183-2.46-4.815c-0.778-1.666-1.423-3.393-2.169-5.075
		c-0.514-1.156-1.076-2.298-2.175-3.04C238.03,151.128,237.73,150.799,237.22,151.082z M214.335,183.029
		c0-0.414,0.047-0.636-0.008-0.829c-0.941-3.374-1.94-6.732-3.678-9.804c-0.317-0.56-0.723-1.084-1.158-1.56
		c-0.463-0.507-1.046-0.846-1.998-0.772c0.22,0.393,0.357,0.653,0.509,0.905c0.351,0.585,0.801,1.129,1.048,1.756
		c0.594,1.507,1.08,3.057,1.636,4.581c0.457,1.251,0.911,2.505,1.45,3.724c0.226,0.512,0.617,0.979,1.023,1.376
		C213.434,182.674,213.861,182.786,214.335,183.029z M267.589,97.948c-0.091-0.015-0.184-0.028-0.275-0.044
		c-0.201,0.243-0.419,0.473-0.598,0.731c-2.515,3.651-5.026,7.303-7.531,10.96c-0.306,0.446-0.575,0.917-0.839,1.387
		c-0.085,0.154-0.099,0.349-0.144,0.526c0.061,0.042,0.12,0.082,0.18,0.123c0.438-0.412,0.93-0.78,1.304-1.243
		c1.355-1.685,2.689-3.39,3.997-5.113c0.917-1.209,1.816-2.418,3.027-3.369c0.321-0.252,0.621-0.645,0.731-1.029
		c0.186-0.651,0.241-1.346,0.294-2.025C267.758,98.555,267.642,98.248,267.589,97.948z M219.171,179.578
		c-0.013,1.161,0.011,1.232,0.871,1.71c0.911,0.509,1.809,1.051,2.759,1.475c1.638,0.733,3.314,1.378,4.967,2.076
		c0.571,0.243,0.968,0.089,1.26-0.431c0.102-0.184,0.22-0.359,0.325-0.526C228.406,182.778,221.094,179.681,219.171,179.578z
		 M246.098,128.615c-0.087,0.027-0.175,0.055-0.262,0.082c0.123,0.607,0.232,1.218,0.37,1.822c0.818,3.562,1.778,7.07,3.83,10.167
		c0.338,0.511,0.784,0.981,0.994,1.541c0.664,1.769,1.915,3.031,3.355,4.153c0.977,0.761,1.799,1.661,2.484,2.695
		c0.518,0.782,1.051,1.556,1.632,2.293c0.886,1.129,2.027,1.94,3.336,2.613c0.158-0.791-0.245-1.148-0.748-1.397
		c-1.004-0.495-1.737-1.279-2.391-2.152c-0.455-0.605-0.869-1.243-1.336-1.839c-0.307-0.393-0.624-0.814-1.027-1.095
		c-2.291-1.59-3.875-3.792-5.134-6.195c-2.023-3.862-4.018-7.755-4.813-12.114C246.352,128.989,246.198,128.807,246.098,128.615z
		 M193.037,194.156c-0.385,0.998-0.254,1.423,0.573,1.668c0.723,0.213,1.475,0.364,2.222,0.44c2.053,0.211,4.075,0.505,5.957,1.439
		c0.586,0.292,1.241,0.448,1.864,0.668c-0.161-0.585-0.55-0.968-0.659-1.421c-0.271-1.143-1.097-1.484-2.082-1.775
		C198.325,194.412,195.6,194.885,193.037,194.156z M226.679,150.868c-0.065,0.279-0.19,0.537-0.171,0.784
		c0.087,1.074,0.104,2.171,0.349,3.213c0.689,2.919,1.11,5.868,1.431,8.846c0.192,1.782,0.649,3.538,1.027,5.295
		c0.11,0.514,0.309,1.04,1.063,1.272c0.042-0.357,0.129-0.659,0.099-0.947c-0.047-0.427-0.156-0.85-0.281-1.262
		c-0.567-1.871-0.949-3.763-0.92-5.737c0.011-0.784-0.104-1.59-0.292-2.353c-0.512-2.097-1.118-4.173-1.632-6.271
		c-0.15-0.611-0.135-1.268-0.148-1.904C227.195,151.433,227.25,151.076,226.679,150.868z M177.469,161.182
		c-0.121-0.495-0.218-0.894-0.317-1.292c-0.313-1.258-0.681-2.507-0.93-3.779c-0.548-2.79-0.476-5.595-0.137-8.408
		c0.125-1.046,0.108-2.11,0.158-3.166c-0.089-0.019-0.176-0.038-0.266-0.057c-0.135,0.311-0.285,0.615-0.404,0.932
		c-1.194,3.166-1.18,6.428-0.763,9.719c0.239,1.883,0.869,3.644,1.782,5.303C176.756,160.733,176.854,161.108,177.469,161.182z
		 M213.775,172.382c-0.084,0.042-0.167,0.082-0.251,0.123c-0.023,0.207-0.07,0.414-0.063,0.619c0.013,0.359,0.019,0.727,0.101,1.074
		c0.85,3.581,2.532,6.811,4.295,10.004c0.097,0.175,0.368,0.252,0.617,0.412c0.34-0.581,0.051-1.013-0.083-1.427
		c-0.651-1.983-1.273-3.98-2.017-5.929c-0.511-1.34-1.182-2.619-1.826-3.904C214.369,172.993,214.037,172.704,213.775,172.382z
		 M178.025,79.559c-0.372,0.063-0.611,0.044-0.782,0.142c-0.996,0.577-1.998,1.148-2.953,1.79c-0.592,0.399-1.16,0.864-1.64,1.389
		c-0.771,0.839-0.865,1.869-0.573,2.94c0.131,0.484,0.418,0.858,0.941,0.926c0.474,0.063,0.676-0.315,0.89-0.659
		C175.226,83.991,176.551,81.896,178.025,79.559z M250.081,162.949c0.575-0.363,0.575-0.79,0.416-1.209
		c-0.139-0.366-0.323-0.733-0.558-1.044c-0.922-1.222-1.452-2.617-2.029-4.023c-0.607-1.48-1.551-2.828-2.405-4.198
		c-0.298-0.48-0.769-0.848-1.577-0.571c0.137,0.442,0.199,0.869,0.393,1.224c0.689,1.26,1.363,2.536,2.156,3.729
		c0.839,1.262,1.64,2.524,2.103,3.984c0.14,0.44,0.366,0.869,0.632,1.247C249.448,162.418,249.793,162.668,250.081,162.949z
		 M223.665,168.368c0.357,0.782,0.628,1.484,0.987,2.139c0.552,1.004,1.106,2.016,1.775,2.94c0.342,0.473,0.892,0.846,1.423,1.116
		c0.71,0.363,1.169,0.023,1.213-0.79c0.009-0.177-0.009-0.361-0.051-0.531c-0.638-2.617-2.528-3.986-4.891-4.868
		C223.999,168.328,223.844,168.368,223.665,168.368z M203.616,199.684c-0.152-0.101-0.232-0.186-0.328-0.214
		c-2.109-0.615-4.213-1.243-6.331-1.822c-0.585-0.159-1.209-0.207-1.816-0.235c-0.391-0.017-0.898,0.066-0.924,0.537
		c-0.015,0.269,0.279,0.693,0.543,0.818c0.674,0.325,1.395,0.575,2.122,0.755c1.467,0.364,2.949,0.668,4.428,0.983
		c0.385,0.082,0.782,0.152,1.173,0.158C203.087,200.679,203.521,200.424,203.616,199.684z M206.465,180.119
		c-0.129-0.281-0.18-0.497-0.307-0.649c-1.478-1.776-3.393-2.513-5.669-2.264c-0.393,0.044-0.807,0.307-1.12,0.577
		c-0.634,0.545-0.535,1.061,0.211,1.41c0.161,0.076,0.338,0.129,0.512,0.167c1.304,0.285,2.602,0.594,3.913,0.829
		C204.766,180.326,205.556,180.567,206.465,180.119z M253.921,154.534c-1.444-0.996-5.489-2.095-6.525-1.761
		c0.14,0.55,0.264,1.105,0.427,1.647c0.285,0.945,0.884,1.659,1.792,2.031c0.325,0.133,0.82,0.163,1.11,0.006
		C251.822,155.865,252.867,155.178,253.921,154.534z M207.592,142.534c-0.082,0.057-0.163,0.114-0.245,0.171
		c0.292,0.604,0.569,1.217,0.883,1.811c0.355,0.668,0.822,1.285,1.101,1.981c1.076,2.687,2.492,5.193,3.955,7.677
		c0.52,0.882,1.148,1.661,1.985,2.253c0.18,0.127,0.427,0.161,0.66,0.245c0.131-0.831,0.22-1.571,0.368-2.298
		c0.178-0.873-0.186-1.344-1.068-1.247c-0.3,0.032-0.585,0.216-0.966,0.366c-0.924-0.805-1.792-1.721-2.357-2.86
		c-0.818-1.642-1.581-3.312-2.321-4.989C209.082,144.493,208.577,143.356,207.592,142.534z M226.07,185.855
		c-1.423-1.397-4.636-2.754-5.9-2.52c0,0.493,0.04,0.993-0.011,1.48c-0.051,0.486,0.175,0.727,0.564,0.924
		c0.702,0.359,1.393,0.742,2.09,1.114C224.037,187.506,225.235,187.158,226.07,185.855z M182.605,196.982
		c0.361-0.186,0.655-0.313,0.924-0.48c1.203-0.74,1.972-1.955,1.199-3.183c-0.074-0.12-0.101-0.27-0.148-0.406
		c-0.158-0.465-0.526-0.617-0.945-0.493c-1.008,0.298-1.85,0.839-2.167,1.907c-0.097,0.326-0.135,0.767,0.011,1.048
		C181.768,195.94,182.201,196.424,182.605,196.982z M180.007,191.778c-0.017,0.928,0.55,1.351,1.249,0.93
		c0.82-0.495,1.57-1.114,2.312-1.723c0.235-0.194,0.389-0.514,0.514-0.805c0.182-0.421-0.142-1.342-0.55-1.638
		c-0.433-0.315-0.846-0.095-1.19,0.144c-0.856,0.598-1.617,1.306-2.078,2.27C180.126,191.243,180.071,191.567,180.007,191.778z
		 M270.871,181.541c2.268-1.621,4.925-2.86,6.147-5.72c-0.708-0.264-1.179,0.038-1.623,0.433c-0.429,0.38-0.848,0.771-1.292,1.133
		c-0.917,0.748-1.862,1.461-2.759,2.232c-0.319,0.273-0.573,0.645-0.784,1.013C270.373,180.956,270.333,181.328,270.871,181.541z
		 M255.192,158.757c-0.025-0.214-0.034-0.431-0.076-0.641c-0.066-0.328-0.283-0.55-0.613-0.438
		c-1.125,0.383-2.257,0.793-2.919,1.886c-0.408,0.674,0.395,2.253,1.152,2.313c0.135,0.011,0.296-0.032,0.41-0.104
		C254.253,161.061,255.035,160.123,255.192,158.757z M273.34,195.655c0.334,0.195,0.528,0.321,0.731,0.425
		c0.381,0.194,0.788,0.345,1.15,0.567c0.827,0.511,1.617,1.082,2.454,1.575c1.365,0.803,2.746,1.575,4.135,2.336
		c0.471,0.258,0.989,0.497,1.41-0.218c-0.562-0.353-1.086-0.719-1.645-1.025c-2.272-1.243-4.549-2.471-6.832-3.695
		C274.368,195.418,273.968,195.24,273.34,195.655z M183.869,160.463c0.017,0.08,0.036,0.159,0.053,0.237
		c0.326-0.047,0.683-0.027,0.976-0.154c1.947-0.854,4.02-1.055,6.1-1.226c0.309-0.025,0.617-0.093,0.917-0.14
		c-0.099-1.055-0.127-1.089-0.886-1.325c-1.141-0.353-2.205-0.121-3.219,0.431C186.492,159.006,185.182,159.736,183.869,160.463z
		 M234.658,181.317c1.156,1.19,2.332,1.465,3.545,0.926c0.788-0.349,1.571-0.715,2.336-1.112c0.361-0.188,0.676-0.463,1.112-0.769
		c-0.924-0.482-1.674-0.638-2.532-0.332c-1.013,0.361-2.063,0.621-3.099,0.92C235.62,181.066,235.212,181.169,234.658,181.317z
		 M219.435,152.107c-0.139,0.361-0.266,0.548-0.275,0.742c-0.099,2.228-0.203,4.458-0.249,6.688
		c-0.011,0.602,0.146,1.211,0.277,1.807c0.044,0.199,0.237,0.364,0.4,0.6C220.213,160.609,220.129,153.559,219.435,152.107z
		 M168.46,93.615c0.262-0.082,0.425-0.085,0.514-0.167c1.146-1.046,1.923-2.313,2.219-3.847c0.158-0.818-0.249-1.412-0.922-2.053
		c-1.072,1.611-1.254,3.422-1.797,5.096C168.386,92.909,168.46,93.228,168.46,93.615z M245.043,195.099
		c1.029-0.34,2.036-0.613,2.991-1.008c0.856-0.353,1.657-0.841,2.482-1.272c0.345-0.18,0.41-0.514,0.156-0.788
		c-0.442-0.474-1.683-0.564-2.186-0.104c-1.051,0.957-2.16,1.782-3.593,2.095c-0.186,0.04-0.37,0.391-0.414,0.622
		C244.46,194.746,244.803,194.915,245.043,195.099z M183.115,185.111c-2.063-0.205-3.944,1.985-3.502,4.063
		c0.232-0.093,0.48-0.14,0.662-0.275c0.657-0.484,1.292-0.998,1.936-1.501C182.937,186.83,183.356,186.137,183.115,185.111z
		 M167.65,199.586c0.888-0.877,1.799-1.733,2.661-2.636c0.928-0.974,2.167-1.435,3.352-1.854c1.382-0.49,2.583,0.186,3.53,1.258
		c0.173,0.195,0.332,0.406,0.497,0.609c0.065-0.042,0.129-0.084,0.192-0.127c-0.476-0.886-0.955-1.771-1.448-2.689
		c-1.05,0.025-2.164-0.336-3.018,0.628c-1.458,0.391-2.592,1.378-3.858,2.116C168.557,197.475,167.802,198.32,167.65,199.586z
		 M202.521,176.121c0,0.009,0,0.021,0,0.03c0.431,0,0.867,0.047,1.287-0.017c0.279-0.044,0.535-0.247,0.801-0.378
		c-0.163-0.256-0.266-0.611-0.499-0.748c-0.643-0.378-1.329-0.695-2.023-0.968c-0.283-0.112-0.641-0.095-0.953-0.049
		c-0.56,0.083-0.867,0.554-0.848,1.19c0.019,0.624,0.222,0.818,0.947,0.873C201.661,176.086,202.092,176.1,202.521,176.121z
		 M217.266,173.128c2.458,1.83,7.421,4.073,8.736,3.982C225.107,176.047,219.239,173.334,217.266,173.128z M182.39,168.364
		c-0.042,0.059-0.082,0.12-0.123,0.178c0.473,0.41,0.989,0.78,1.406,1.239c0.738,0.814,1.554,1.19,2.657,0.721
		c0.063-0.139,0.131-0.304,0.211-0.461c0.095-0.19,0.19-0.383,0.306-0.56c0.353-0.545,0.285-0.913-0.26-1.33
		c-0.488-0.374-0.839-0.326-1.285,0.171c-0.649,0.723-1.086,0.824-1.972,0.45C183.015,168.639,182.704,168.501,182.39,168.364z
		 M185.26,163.705c-0.338,1.253-0.205,1.676,0.757,2.01c0.554,0.194,1.192,0.228,1.788,0.203c0.567-0.025,1.124-0.23,1.689-0.34
		c0.936-0.18,0.934-0.175,0.846-1.18c-0.019-0.216-0.009-0.433-0.023-0.649c-0.019-0.33-0.038-0.698-0.474-0.719
		c-0.395-0.019-0.605,0.271-0.604,0.624c0.002,0.647-0.33,1.042-0.807,1.427c-0.769,0.622-0.852,0.66-1.632,0.002
		C186.308,164.669,185.839,164.225,185.26,163.705z M247.535,170.142c-0.201,0.194-0.45,0.349-0.581,0.575
		c-0.554,0.953,0.342,2.796,1.448,3.025c0.753,0.156,1.328-0.452,0.983-1.144c-0.381-0.765-0.928-1.446-1.418-2.154
		C247.891,170.336,247.739,170.283,247.535,170.142z M229.725,193.765c0.042,0.03,0.085,0.061,0.127,0.089
		c0.818-0.437,1.617-0.909,2.456-1.3c0.81-0.378,1.651-0.461,2.486,0.004c1.16,0.645,2.331,1.275,3.503,1.898
		c0.23,0.121,0.493,0.178,0.742,0.266c-0.034-0.342-0.15-0.554-0.326-0.687c-0.547-0.41-1.105-0.807-1.68-1.177
		c-1.143-0.733-2.433-1.12-3.758-1.228c-1.061-0.087-1.841,0.715-2.67,1.279c-0.209,0.14-0.429,0.269-0.613,0.437
		C229.875,193.456,229.812,193.623,229.725,193.765z M223.584,189.941c0.061,0.095,0.121,0.188,0.18,0.283
		c0.659-0.065,1.114-0.548,1.573-0.955c2.069-1.83,4.532-3.073,6.781-4.633c0.454-0.315,0.926-0.347,1.429-0.101
		c0.338,0.165,0.693,0.292,1.116,0.469c-0.681-1.856-1.399-2.11-2.733-0.93c-1.306,1.156-2.75,2.093-4.206,3.027
		c-1.093,0.7-2.177,1.414-3.255,2.135C224.159,189.443,223.88,189.704,223.584,189.941z M246.606,174.414
		c-0.207-0.387-0.412-0.776-0.621-1.163c-0.22-0.404-0.385-0.858-0.681-1.198c-0.463-0.528-1.013-0.366-1.192,0.294
		c-0.178,0.668-0.258,1.315,0.3,1.879c0.197,0.199,0.34,0.461,0.488,0.706c0.233,0.387,0.499,0.738,1.015,0.596
		C246.438,175.384,246.449,174.921,246.606,174.414z M185.979,198.029c-0.015-0.142-0.017-0.545-0.106-0.928
		c-0.152-0.651-0.604-0.886-1.103-0.48c-0.454,0.37-0.82,0.896-1.095,1.421c-0.233,0.444-0.063,0.93,0.362,1.249
		c0.44,0.33,0.938,0.632,1.497,0.431c0.567-0.205,0.412-0.769,0.444-1.222C185.983,198.428,185.979,198.356,185.979,198.029z
		 M218.873,192.482c-0.271-0.241-0.497-0.258-0.725,0.049c-0.877,1.18-2.086,1.919-3.372,2.579c-0.951,0.49-1.858,1.067-2.767,1.634
		c-0.368,0.23-0.66,0.547-0.309,1.048c0.144-0.044,0.268-0.046,0.338-0.108c0.833-0.752,1.776-1.289,2.826-1.716
		c1.182-0.48,2.336-1.076,3.059-2.238C218.182,193.311,218.52,192.941,218.873,192.482z M238.81,183.515
		c1.731,1.376,3.596,1.086,4.549-0.744c-0.353-0.598-0.818-0.554-1.391-0.323c-0.731,0.294-1.497,0.495-2.249,0.742
		C239.461,183.274,239.205,183.372,238.81,183.515z M243.395,176.751c-0.137-1.16-0.251-2.171-0.864-3.044
		c-0.245-0.349-0.6-0.37-0.941-0.099c-0.602,0.478-0.717,1.581-0.178,2.131C241.886,176.223,242.427,176.639,243.395,176.751z
		 M237.275,177.544c-0.617-0.884-1.626-1.533-2.693-1.744c-0.319,0.6-0.241,1.9,0.165,2.277c0.116,0.108,0.323,0.199,0.473,0.18
		C235.952,178.17,236.722,178.159,237.275,177.544z M182.468,182.3c-1.296-0.558-2.074,0.243-2.864,0.945
		c-0.361,0.323-0.547,0.75-0.325,1.241C180.904,184.619,182.385,183.611,182.468,182.3z M202.779,172.676
		c0.247-0.814-0.108-1.37-0.493-1.894c-0.389-0.528-1.344-0.636-1.735-0.243c-0.37,0.372-0.254,1.215,0.273,1.642
		C201.373,172.623,202.011,172.813,202.779,172.676z M251.091,172.11c0.268-0.114,0.465-0.195,0.659-0.285
		c0.414-0.19,0.484-0.518,0.304-0.892c-0.292-0.611-0.59-1.222-0.936-1.803c-0.232-0.389-0.647-0.469-1.044-0.3
		c-0.368,0.158-0.336,0.507-0.251,0.839C250.047,170.546,250.41,171.353,251.091,172.11z M217.541,159.393
		c0.433-3.71,0.41-4.843-0.106-5.961C216.939,154.54,216.96,158.315,217.541,159.393z M231.444,176.555
		c0.353-0.949,0.307-2.336-0.114-2.949c-0.125-0.18-0.395-0.385-0.577-0.366c-0.186,0.017-0.433,0.268-0.501,0.467
		C230.019,174.371,230.712,176.014,231.444,176.555z M197.964,163.314c0.047,0.729,0.083,1.273,0.12,1.818
		c0.399,0.072,0.697,0.078,0.953,0.182c0.471,0.194,0.763,0.055,0.932-0.393c0.165-0.438-0.006-0.867-0.457-1.065
		C199.092,163.674,198.648,163.549,197.964,163.314z M275.093,169.032c-0.37,0.994-0.182,1.723,0.042,2.416
		c0.161,0.497,0.727,0.666,1.144,0.448c0.385-0.201,0.516-0.645,0.213-1.106C276.124,170.235,275.665,169.74,275.093,169.032z
		 M254.399,170.249c-0.051-0.877-1.023-2.551-1.79-3.112c-0.239,1.243-0.156,1.537,0.752,2.608
		C253.63,170.061,253.864,170.469,254.399,170.249z M238.37,198.01c0.059,0.082,0.12,0.161,0.178,0.243
		c1.294-0.714,2.959-0.774,3.845-2.247c-0.418-0.507-0.788-0.311-1.161-0.04c-0.55,0.4-1.103,0.799-1.657,1.196
		C239.174,197.449,238.77,197.73,238.37,198.01z M219.886,171.49c0.059-1.602-0.243-1.892-1.725-1.607
		c0.131,0.53,0.26,1.051,0.387,1.564c0.372,0.042,0.617,0.082,0.864,0.095C219.549,171.549,219.685,171.514,219.886,171.49z
		 M251.657,178.009c-0.839,0.021-1.127,0.213-1.226,0.848c-0.04,0.266,0.047,0.7,0.233,0.822c0.476,0.313,0.854-0.066,1.203-0.376
		c0.053-0.047,0.123-0.097,0.139-0.158c0.08-0.292,0.247-0.617,0.175-0.871C252.137,178.109,251.733,178.045,251.657,178.009z
		 M202.661,164.716c-0.29,1.391,0.127,1.856,1.393,1.551C204.324,164.938,204.017,164.597,202.661,164.716z M195.127,164.61
		c-0.032-0.552-0.057-0.989-0.084-1.437c-0.529-0.085-0.936-0.15-1.397-0.224c-0.228,0.736-0.11,1.283,0.323,1.867
		C194.294,164.758,194.634,164.699,195.127,164.61z M246.14,182.569c0-0.325,0.068-0.723-0.025-1.08
		c-0.057-0.218-0.342-0.495-0.554-0.524c-0.194-0.027-0.567,0.211-0.615,0.397c-0.091,0.347-0.12,0.801,0.036,1.103
		C245.175,182.845,245.618,182.847,246.14,182.569z M255.635,176.502c0.433,0.159,0.788,0.427,1.008,0.344
		c0.567-0.218,1.074-0.592,1.644-0.926C257.498,175.242,256.885,175.373,255.635,176.502z M248.003,181.114
		c1.087-0.347,1.281-0.598,1.069-1.232c-0.169-0.505-0.454-0.535-1.401-0.082C247.776,180.22,247.888,180.662,248.003,181.114z
		 M206.922,166.384c0,0.404-0.057,0.727,0.019,1.013c0.055,0.199,0.307,0.499,0.448,0.486c0.228-0.021,0.529-0.216,0.626-0.421
		c0.14-0.296,0.125-0.664,0.19-1.078C207.757,166.384,207.419,166.384,206.922,166.384z M215.867,170.256
		c0.099-0.393,0.184-0.655,0.228-0.924c0.057-0.347-0.03-0.708-0.427-0.708c-0.273,0-0.622,0.167-0.799,0.376
		c-0.228,0.269-0.116,0.615,0.194,0.826C215.265,169.962,215.493,170.059,215.867,170.256z M255.097,177.356
		c-0.306-0.537-0.738-0.706-1.26-0.569c-0.159,0.042-0.364,0.271-0.38,0.433c-0.044,0.442,0.197,0.727,0.689,0.795
		C254.448,177.806,254.763,177.588,255.097,177.356z M211.834,168.78c0-0.452,0.08-0.801-0.027-1.078
		c-0.076-0.199-0.391-0.38-0.621-0.414c-0.116-0.017-0.38,0.3-0.402,0.488c-0.036,0.298,0.074,0.613,0.129,0.957
		C211.253,168.749,211.526,168.764,211.834,168.78z"/>
	<path class="st1" d="M210.308,113.267c-0.042,1.382-0.79,2.456-1.981,3.19c-1.059,0.651-2.209,0.097-2.49-1.127
		c-0.296-1.294-0.116-2.45,1.11-3.223c0.545-0.344,1.074-0.742,1.668-0.972c0.795-0.306,1.201-0.044,1.471,0.771
		c0.068,0.205,0.12,0.416,0.154,0.628C210.278,112.747,210.283,112.965,210.308,113.267z"/>
	<path class="st1" d="M204.165,113.66c0.427,1.657,0.195,2.388-1.063,3.181c-0.727,0.459-1.503,0.845-2.274,1.23
		c-0.302,0.152-0.647,0.214-1.051,0.344c-0.082-0.738-0.182-1.338-0.194-1.94c-0.004-0.207,0.165-0.503,0.344-0.611
		c1.133-0.693,2.287-1.357,3.448-2.002C203.605,113.732,203.901,113.723,204.165,113.66z"/>
	<path class="st1" d="M195.425,119.851c0.027-0.977,0.467-1.678,1.249-2.179c0.586-0.376,1.167-0.254,1.625,0.275
		c0.67,0.776,0.558,3.173-0.302,3.803c-0.898,0.657-1.752,0.554-2.188-0.457C195.615,120.84,195.548,120.333,195.425,119.851z"/>
	<path class="st1" d="M206.469,122.897c0.698,0,0.955,0.254,0.975,0.976c0.023,0.795-0.395,1.268-1.124,1.27
		c-0.581,0.002-0.964-0.486-0.941-1.194C205.4,123.275,205.791,122.899,206.469,122.897z"/>
	<path class="st1" d="M199.851,126.48c0-0.144-0.015-0.288,0.002-0.431c0.074-0.577,0.577-0.846,1.095-0.598
		c0.575,0.277,0.731,1.642,0.184,1.968c-0.241,0.144-0.714,0.214-0.892,0.074c-0.262-0.203-0.353-0.624-0.516-0.955
		C199.767,126.522,199.809,126.501,199.851,126.48z"/>
	<path class="st1" d="M209.541,122.523c0.541-0.017,0.755,0.205,0.755,0.782s-0.29,0.913-0.801,0.928
		c-0.459,0.013-0.843-0.383-0.869-0.9C208.602,122.855,208.959,122.54,209.541,122.523z"/>
	<path class="st1" d="M199.281,127.824c-0.391,0.279-0.645,0.461-0.898,0.643c-0.135-0.214-0.357-0.418-0.381-0.643
		c-0.04-0.355,0.074-0.786,0.543-0.712C198.773,127.146,198.951,127.49,199.281,127.824z"/>
</g>
<g id="logo-ec">
	<g id="calendar">
		<rect x="687.685" y="59.804" class="st2" width="20.91" height="20.91"/>
		<rect x="687.685" y="84.893" class="st2" width="20.91" height="20.91"/>
		<rect x="687.685" y="109.986" class="st2" width="20.91" height="20.91"/>
		<rect x="687.685" y="135.076" class="st2" width="20.91" height="20.91"/>
		<rect x="712.775" y="59.804" class="st2" width="20.91" height="20.91"/>
		<rect x="712.775" y="84.893" class="st2" width="20.91" height="20.91"/>
		<rect x="712.775" y="109.986" class="st2" width="20.91" height="20.91"/>
		<rect x="712.775" y="135.076" class="st2" width="20.91" height="20.91"/>
		<rect x="737.868" y="59.804" class="st2" width="20.91" height="20.91"/>
		<rect x="737.868" y="84.893" class="st3" width="20.91" height="20.91"/>
		<rect x="737.868" y="109.986" class="st2" width="20.91" height="20.91"/>
		<rect x="737.868" y="135.076" class="st2" width="20.91" height="20.91"/>
		<rect x="762.957" y="59.804" class="st2" width="20.91" height="20.91"/>
		<rect x="762.957" y="84.893" class="st2" width="20.91" height="20.91"/>
		<rect x="762.957" y="109.986" class="st2" width="20.91" height="20.91"/>
		<rect x="762.957" y="135.076" class="st2" width="20.91" height="20.91"/>
		<rect x="788.05" y="59.804" class="st2" width="20.91" height="20.91"/>
		<rect x="788.05" y="84.893" class="st2" width="20.91" height="20.91"/>
		<rect x="788.05" y="109.986" class="st2" width="20.91" height="20.91"/>
		<rect x="788.05" y="135.076" class="st2" width="20.91" height="20.91"/>
		<rect x="813.14" y="59.804" class="st2" width="20.91" height="20.91"/>
		<rect x="813.14" y="84.893" class="st2" width="20.91" height="20.91"/>
		<rect x="813.14" y="109.986" class="st2" width="20.91" height="20.91"/>
		<rect x="813.14" y="135.076" class="st2" width="20.91" height="20.91"/>
		<rect x="838.23" y="59.804" class="st2" width="20.91" height="20.91"/>
		<rect x="838.23" y="84.893" class="st2" width="20.91" height="20.91"/>
		<rect x="838.23" y="109.986" class="st2" width="20.91" height="20.91"/>
		<rect x="838.23" y="135.076" class="st2" width="20.91" height="20.91"/>
	</g>
	<path class="st2" d="M883.707,30.531h-220.59c-2.599,0-4.705,2.106-4.705,4.705v149.5c0,2.599,2.106,4.705,4.705,4.705h99.84v8.362
		h-57.106c-5.412,0-9.801,4.386-9.801,9.801v2.744h154.728v-2.744c0-5.412-4.386-9.801-9.801-9.801h-57.109v-8.362h99.84
		c2.599,0,4.705-2.106,4.705-4.705v-149.5C888.412,32.637,886.306,30.531,883.707,30.531z M773.412,183.169
		c-3.463,0-6.272-2.809-6.272-6.272c0-3.463,2.809-6.272,6.272-6.272c3.463,0,6.272,2.809,6.272,6.272
		C779.685,180.36,776.876,183.169,773.412,183.169z M867.502,164.349H679.323V51.442h188.183v112.907H867.502z"/>
</g>
<g id="titles">
	<g id="title-ec">
		<path class="st2" d="M579.464,272.535h-26.857v-44.784h25.827v8.216h-15.742v9.964h14.647v8.184h-14.644v10.245h16.772v8.177
			H579.464z"/>
		<path class="st2" d="M591.837,268.818h-0.124v18.428h-9.872v-46.693h9.868v4.811h0.124c2.438-3.728,5.86-5.59,10.277-5.59
			c4.143,0,7.345,1.421,9.605,4.264c2.26,2.843,3.39,6.709,3.39,11.602c0,5.33-1.318,9.609-3.951,12.835
			c-2.633,3.227-6.137,4.84-10.511,4.84C596.79,273.317,593.855,271.818,591.837,268.818z M591.556,255.703v2.562
			c0,2.207,0.583,4.008,1.748,5.405s2.697,2.093,4.591,2.093c2.249,0,3.994-0.871,5.231-2.608c1.237-1.738,1.858-4.2,1.858-7.388
			c0-5.622-2.185-8.432-6.56-8.432c-2.018,0-3.671,0.764-4.95,2.296S591.556,253.183,591.556,255.703z"/>
		<rect x="617.667" y="240.554" class="st2" width="9.868" height="31.981"/>
		<path class="st2" d="M684.483,244.257c-3.02-2.988-7.182-4.481-12.494-4.481c-5.394,0-9.673,1.492-12.835,4.481
			c-3.163,2.988-4.747,7.125-4.747,12.416c0,5.121,1.524,9.179,4.577,12.164c3.052,2.985,7.242,4.481,12.572,4.481
			c5.412,0,9.676-1.542,12.789-4.623s4.669-7.277,4.669-12.586C689.01,251.197,687.5,247.245,684.483,244.257z M682.166,258.297
			c-1.19,1.428-2.541,2.701-3.98,3.863c-2.057,1.659-4.165,3.255-6.247,4.882c-0.131,0.103-0.235,0.171-0.409,0.039
			c-3.038-2.224-6.03-4.502-8.738-7.132c-0.533-0.515-1.023-1.077-1.514-1.631c-1.912-2.164-1.844-5.408-0.281-7.629
			c2.569-3.646,8.002-3.614,10.518,0.071c0.053,0.082,0.11,0.16,0.195,0.284c0.458-0.707,0.984-1.293,1.617-1.78
			c3.763-2.889,9.36-0.693,10.149,3.98C683.797,255.12,683.399,256.815,682.166,258.297z"/>
		<path class="st2" d="M629.916,271.693v-7.995c1.624,0.977,3.244,1.706,4.858,2.185s3.138,0.718,4.577,0.718
			c1.748,0,3.127-0.238,4.14-0.718c1.013-0.48,1.514-1.208,1.514-2.185c0-0.625-0.227-1.144-0.686-1.56
			c-0.458-0.416-1.045-0.782-1.766-1.094c-0.721-0.313-1.503-0.593-2.359-0.842s-1.677-0.529-2.466-0.842
			c-1.269-0.48-2.388-0.995-3.358-1.546s-1.78-1.19-2.438-1.922s-1.155-1.571-1.5-2.53c-0.345-0.959-0.515-2.093-0.515-3.404
			c0-1.791,0.391-3.333,1.173-4.623c0.782-1.29,1.823-2.349,3.123-3.17c1.301-0.821,2.789-1.425,4.467-1.812
			s3.418-0.579,5.231-0.579c1.414,0,2.853,0.11,4.31,0.327c1.457,0.217,2.893,0.537,4.31,0.952v7.622
			c-1.251-0.728-2.587-1.276-4.012-1.638c-1.425-0.362-2.825-0.547-4.2-0.547c-0.647,0-1.254,0.057-1.826,0.171
			c-0.572,0.114-1.077,0.281-1.514,0.501c-0.437,0.22-0.782,0.501-1.03,0.842c-0.249,0.341-0.373,0.736-0.373,1.173
			c0,0.583,0.188,1.084,0.561,1.5c0.373,0.416,0.864,0.775,1.468,1.077c0.604,0.302,1.276,0.572,2.015,0.814
			s1.475,0.483,2.203,0.736c1.311,0.458,2.498,0.959,3.561,1.5s1.972,1.176,2.733,1.905c0.76,0.728,1.343,1.581,1.748,2.562
			s0.608,2.146,0.608,3.497c0,1.894-0.412,3.514-1.233,4.858s-1.915,2.438-3.28,3.28c-1.365,0.842-2.935,1.457-4.715,1.844
			c-1.78,0.387-3.628,0.579-5.543,0.579C636.17,273.317,632.911,272.777,629.916,271.693z"/>
		<path class="st2" d="M722.868,272.535H713v-4.403h-0.124c-2.249,3.458-5.551,5.185-9.9,5.185c-3.998,0-7.214-1.411-9.651-4.232
			c-2.438-2.821-3.653-6.762-3.653-11.822c0-5.288,1.343-9.527,4.03-12.711c2.686-3.184,6.204-4.779,10.557-4.779
			c4.122,0,6.997,1.478,8.621,4.435h0.124v-19.022h9.868v47.35H722.868z M713.188,256.982v-2.406c0-2.082-0.604-3.809-1.812-5.185
			s-2.779-2.061-4.715-2.061c-2.185,0-3.895,0.86-5.121,2.576c-1.226,1.716-1.844,4.076-1.844,7.075c0,2.811,0.593,4.975,1.78,6.496
			c1.187,1.521,2.832,2.281,4.936,2.281c2.001,0,3.628-0.803,4.886-2.406S713.188,259.629,713.188,256.982z"/>
		<path class="st2" d="M756.071,259.355h-20.862c0.334,4.644,3.259,6.965,8.777,6.965c3.518,0,6.609-0.832,9.275-2.498v7.121
			c-2.956,1.581-6.798,2.374-11.524,2.374c-5.163,0-9.172-1.432-12.025-4.293c-2.853-2.861-4.278-6.855-4.278-11.979
			c0-5.309,1.542-9.516,4.623-12.618s6.872-4.655,11.368-4.655c4.666,0,8.272,1.386,10.82,4.154
			c2.548,2.768,3.827,6.528,3.827,11.275C756.071,255.201,756.071,259.355,756.071,259.355z M746.921,253.297
			c0-4.58-1.851-6.872-5.558-6.872c-1.581,0-2.953,0.657-4.108,1.969c-1.155,1.311-1.858,2.946-2.107,4.904H746.921z"/>
		<path class="st3" d="M794.246,270.943c-3.269,1.581-7.537,2.374-12.807,2.374c-6.872,0-12.27-2.018-16.207-6.059
			c-3.934-4.04-5.902-9.42-5.902-16.147c0-7.164,2.214-12.97,6.638-17.426c4.424-4.456,10.163-6.684,17.224-6.684
			c4.371,0,8.059,0.551,11.055,1.656v9.712c-2.999-1.791-6.414-2.686-10.245-2.686c-4.207,0-7.601,1.322-10.181,3.966
			c-2.58,2.644-3.873,6.226-3.873,10.742c0,4.332,1.222,7.782,3.656,10.355s5.71,3.856,9.836,3.856
			c3.934,0,7.537-0.959,10.806-2.875C794.246,261.726,794.246,270.943,794.246,270.943z"/>
		<path class="st3" d="M823.857,272.535h-9.339v-4.591h-0.124c-2.146,3.582-5.32,5.373-9.527,5.373c-3.102,0-5.543-0.881-7.327-2.64
			c-1.777-1.759-2.669-4.108-2.669-7.043c0-6.204,3.674-9.786,11.026-10.742l8.681-1.155c0-3.497-1.894-5.248-5.686-5.248
			c-3.809,0-7.434,1.134-10.87,3.404v-7.434c1.375-0.707,3.251-1.333,5.636-1.873c2.384-0.54,4.556-0.814,6.513-0.814
			c9.118,0,13.681,4.548,13.681,13.649v19.114H823.857z M814.583,259.544v-2.153l-5.81,0.75c-3.205,0.416-4.811,1.862-4.811,4.342
			c0,1.123,0.387,2.047,1.173,2.765c0.778,0.718,1.837,1.077,3.17,1.077c1.851,0,3.362-0.64,4.527-1.922
			C813.997,263.119,814.583,261.502,814.583,259.544z"/>
		<path class="st3" d="M837.698,272.535h-9.868v-47.346h9.868V272.535z"/>
		<path class="st3" d="M870.902,259.355h-20.862c0.334,4.644,3.259,6.965,8.777,6.965c3.518,0,6.609-0.832,9.275-2.498v7.121
			c-2.956,1.581-6.798,2.374-11.524,2.374c-5.163,0-9.172-1.432-12.025-4.293c-2.853-2.861-4.278-6.855-4.278-11.979
			c0-5.309,1.542-9.516,4.623-12.618s6.872-4.655,11.368-4.655c4.666,0,8.269,1.386,10.82,4.154s3.827,6.528,3.827,11.275V259.355z
			 M861.752,253.297c0-4.58-1.851-6.872-5.558-6.872c-1.581,0-2.949,0.657-4.108,1.969c-1.151,1.311-1.855,2.946-2.107,4.904
			H861.752z"/>
		<path class="st3" d="M903.825,272.535h-9.84v-17.771c0-4.957-1.77-7.434-5.309-7.434c-1.706,0-3.113,0.657-4.218,1.969
			c-1.105,1.311-1.656,2.978-1.656,4.996v18.24h-9.868v-31.981h9.868v5.06h0.124c2.352-3.895,5.778-5.842,10.277-5.842
			c7.078,0,10.618,4.392,10.618,13.18v19.583H903.825z"/>
		<path class="st3" d="M622.667,235.497c1.688,0,3.056-0.48,4.108-1.436s1.578-2.185,1.578-3.685c0-1.478-0.526-2.686-1.578-3.625
			c-1.052-0.938-2.42-1.407-4.108-1.407c-1.667,0-3.031,0.469-4.09,1.407c-1.059,0.938-1.592,2.146-1.592,3.625
			c0,1.436,0.529,2.651,1.592,3.639C619.639,235.004,621,235.497,622.667,235.497z"/>
		<path class="st3" d="M939.09,272.535h-9.868v-4.403h-0.124c-2.249,3.458-5.551,5.185-9.9,5.185c-3.998,0-7.214-1.411-9.651-4.232
			c-2.438-2.821-3.653-6.762-3.653-11.822c0-5.288,1.343-9.527,4.03-12.711c2.686-3.184,6.204-4.779,10.557-4.779
			c4.122,0,6.997,1.478,8.621,4.435h0.124v-19.022h9.868v47.35H939.09z M929.406,256.982v-2.406c0-2.082-0.604-3.809-1.812-5.185
			s-2.779-2.061-4.716-2.061c-2.185,0-3.895,0.86-5.121,2.576c-1.226,1.716-1.844,4.076-1.844,7.075c0,2.811,0.593,4.975,1.78,6.496
			c1.187,1.521,2.832,2.281,4.936,2.281c2.001,0,3.628-0.803,4.886-2.406C928.774,261.751,929.406,259.629,929.406,256.982z"/>
		<path class="st3" d="M970.168,272.535h-9.339v-4.591h-0.124c-2.146,3.582-5.32,5.373-9.527,5.373c-3.102,0-5.543-0.881-7.327-2.64
			c-1.777-1.759-2.669-4.108-2.669-7.043c0-6.204,3.674-9.786,11.026-10.742l8.681-1.155c0-3.497-1.894-5.248-5.686-5.248
			c-3.809,0-7.434,1.134-10.87,3.404v-7.434c1.375-0.707,3.251-1.333,5.636-1.873c2.384-0.54,4.556-0.814,6.514-0.814
			c9.118,0,13.681,4.548,13.681,13.649v19.114H970.168z M960.894,259.544v-2.153l-5.81,0.75c-3.205,0.416-4.811,1.862-4.811,4.342
			c0,1.123,0.387,2.047,1.173,2.765c0.778,0.718,1.837,1.077,3.17,1.077c1.851,0,3.362-0.64,4.527-1.922
			C960.307,263.119,960.894,261.502,960.894,259.544z"/>
		<path class="st3" d="M995,249.456c-1.187-0.647-2.573-0.967-4.154-0.967c-2.146,0-3.82,0.785-5.028,2.36
			c-1.208,1.574-1.812,3.71-1.812,6.418v15.273h-9.868v-31.981h9.868v5.934h0.124c1.56-4.332,4.371-6.496,8.432-6.496
			c1.041,0,1.851,0.124,2.438,0.373V249.456z"/>
	</g>
	<g>
		<path class="st2" d="M479.838,253.074c0.164-2.524,0.323-5.517,0.478-8.976c0.106-2.517,0.184-5.12,0.233-7.809l1.145,0.013
			c0.238,0,0.603-0.004,1.095-0.013l-0.38,7.218l-0.27,7.304l-0.049,2.263c-0.484-0.017-0.845-0.024-1.083-0.024
			C480.909,253.05,480.519,253.058,479.838,253.074z"/>
		<path class="st2" d="M485.531,253.074l0.213-3.099l0.238-5.287l0.1-4.07l1.132,0.013l1.107-0.013
			c-0.092,1.279-0.176,2.617-0.251,4.015s-0.136,2.925-0.182,4.58c-0.046,1.656-0.069,2.943-0.069,3.861
			c-0.517-0.017-0.886-0.024-1.108-0.024C486.508,253.05,486.114,253.058,485.531,253.074z M486.097,237.938
			c0.024-0.771,0.037-1.353,0.037-1.746c0.451,0.017,0.849,0.025,1.193,0.025c0.435,0,0.828-0.009,1.181-0.025
			c-0.017,0.255-0.042,0.837-0.074,1.746c-0.442-0.008-0.824-0.012-1.143-0.012C486.97,237.926,486.572,237.93,486.097,237.938z"/>
		<path class="st2" d="M491.064,253.074c0.392-5.14,0.596-9.292,0.613-12.456l1.108,0.013c0.271,0,0.627-0.004,1.071-0.013
			l-0.163,2.459c0.205-0.344,0.369-0.608,0.492-0.793s0.287-0.379,0.492-0.584c0.205-0.204,0.447-0.396,0.726-0.571
			c0.279-0.177,0.607-0.324,0.984-0.443c0.377-0.118,0.761-0.206,1.15-0.264c0.39-0.058,0.777-0.086,1.163-0.086
			c0.705,0,1.386,0.086,2.042,0.258s1.195,0.453,1.617,0.843c0.422,0.389,0.705,0.825,0.85,1.309
			c0.143,0.484,0.215,1.005,0.215,1.563c0,0.106-0.004,0.312-0.012,0.614c-0.01,0.304-0.025,0.701-0.049,1.192l-0.244,5.152
			c-0.016,0.492-0.029,1.095-0.037,1.808c-0.369-0.017-0.719-0.024-1.047-0.024c-0.402,0-0.779,0.008-1.132,0.024
			c0.084-0.992,0.144-1.947,0.187-2.865l0.16-2.864c0.051-0.984,0.074-1.726,0.074-2.226c0-0.722-0.123-1.298-0.369-1.728
			c-0.246-0.431-0.64-0.763-1.181-0.996c-0.542-0.234-1.149-0.351-1.822-0.351c-0.953,0-1.769,0.226-2.45,0.676
			c-0.624,0.418-1.108,1.013-1.453,1.783c-0.238,0.549-0.406,1.36-0.504,2.435c-0.125,1.287-0.213,3.332-0.263,6.136
			c-0.458-0.017-0.813-0.024-1.065-0.024S491.579,253.058,491.064,253.074z"/>
		<path class="st2" d="M506.348,253.074l0.208-3.332l0.258-6.382l0.135-5.349c0.009-0.778,0.013-1.353,0.013-1.722l1.145,0.013
			c0.221,0,0.578-0.004,1.07-0.013c-0.106,1.32-0.235,3.884-0.387,7.691s-0.239,6.839-0.264,9.093
			c-0.509-0.017-0.865-0.024-1.07-0.024C507.226,253.05,506.856,253.058,506.348,253.074z M508.881,246.121l2.509-2.678
			c0.877-0.934,1.705-1.875,2.484-2.825c0.565,0.009,0.976,0.013,1.229,0.013c0.319,0,0.758-0.004,1.314-0.013l-5.318,5.515
			c0.992,1.297,2.913,3.61,5.761,6.941c-0.507-0.017-0.916-0.024-1.228-0.024c-0.311,0-0.732,0.008-1.264,0.024l-1.81-2.399
			c-0.172-0.222-0.554-0.689-1.144-1.403l-1.908-2.326L508.881,246.121z"/>
		<path class="st2" d="M517.82,252.841l-0.074-0.903c0-0.1-0.032-0.413-0.098-0.941c1.262,0.55,2.426,0.824,3.492,0.824
			c0.557,0,1.028-0.073,1.414-0.221c0.385-0.147,0.674-0.365,0.866-0.655s0.289-0.591,0.289-0.901c0-0.171-0.026-0.343-0.08-0.515
			c-0.053-0.171-0.133-0.337-0.239-0.496s-0.265-0.335-0.474-0.527c-0.209-0.191-0.644-0.554-1.304-1.087
			c-0.659-0.532-1.16-0.948-1.5-1.248c-0.34-0.299-0.631-0.606-0.873-0.922c-0.241-0.315-0.42-0.634-0.534-0.953
			c-0.115-0.319-0.173-0.644-0.173-0.972c0-0.524,0.166-1.032,0.498-1.524s0.812-0.858,1.438-1.101
			c0.628-0.241,1.363-0.362,2.207-0.362c0.943,0,1.98,0.11,3.111,0.332c0.032,0.639,0.074,1.226,0.123,1.758
			c-0.918-0.377-1.824-0.565-2.718-0.565c-0.483,0-0.933,0.063-1.346,0.19c-0.414,0.127-0.718,0.317-0.91,0.572
			c-0.192,0.254-0.289,0.532-0.289,0.836c0,0.196,0.032,0.385,0.099,0.565c0.065,0.181,0.182,0.375,0.351,0.584
			c0.167,0.209,0.37,0.416,0.608,0.621c0.237,0.205,0.711,0.59,1.42,1.155c0.709,0.566,1.194,0.984,1.457,1.255
			s0.487,0.549,0.677,0.836c0.188,0.287,0.325,0.571,0.411,0.854c0.087,0.283,0.13,0.572,0.13,0.867
			c0,0.573-0.171,1.106-0.511,1.599c-0.34,0.491-0.847,0.872-1.519,1.143c-0.672,0.271-1.426,0.406-2.263,0.406
			c-0.353,0-0.767-0.022-1.241-0.067c-0.476-0.045-0.88-0.099-1.212-0.16S518.313,252.964,517.82,252.841z"/>
		<path class="st2" d="M488.913,274.06l0.134-2.26l0.33-8.646h-1.534c0.041-0.405,0.074-0.913,0.098-1.525h1.585
			c0.017-0.762,0.035-1.346,0.056-1.752c0.02-0.405,0.074-0.771,0.16-1.094c0.086-0.324,0.213-0.599,0.381-0.824
			c0.168-0.226,0.401-0.433,0.701-0.621s0.648-0.326,1.045-0.412s0.854-0.129,1.371-0.129c0.681,0,1.472,0.103,2.374,0.308
			c0.016,0.492,0.057,1.013,0.123,1.562c-0.779-0.271-1.488-0.406-2.127-0.406c-0.312,0-0.599,0.042-0.861,0.123
			c-0.262,0.082-0.473,0.191-0.633,0.326c-0.16,0.136-0.291,0.313-0.393,0.535c-0.103,0.221-0.172,0.483-0.209,0.787
			c-0.037,0.303-0.056,0.659-0.056,1.069l-0.012,0.528h3.418c-0.042,0.355-0.078,0.864-0.111,1.525h-3.297l-0.218,6.275
			l-0.109,4.631c-0.509-0.017-0.882-0.024-1.121-0.024C489.779,274.035,489.414,274.043,488.913,274.06z"/>
		<path class="st2" d="M502.205,261.321c0.859,0,1.68,0.123,2.459,0.368c0.777,0.246,1.453,0.636,2.021,1.169
			c0.57,0.532,1.002,1.204,1.299,2.016c0.295,0.812,0.441,1.669,0.441,2.57c0,0.976-0.158,1.91-0.473,2.804
			c-0.316,0.894-0.758,1.651-1.328,2.274s-1.268,1.08-2.09,1.371c-0.824,0.291-1.707,0.437-2.65,0.437
			c-0.877,0-1.705-0.131-2.483-0.394c-0.779-0.262-1.453-0.672-2.023-1.229s-1.002-1.24-1.297-2.047
			c-0.295-0.808-0.443-1.654-0.443-2.539c0-1.337,0.271-2.54,0.812-3.609s1.336-1.869,2.385-2.397
			C499.885,261.585,501.008,261.321,502.205,261.321z M502.148,262.883c-0.834,0-1.602,0.209-2.301,0.627
			c-0.7,0.418-1.218,1.047-1.553,1.888c-0.336,0.84-0.503,1.756-0.503,2.748c0,0.869,0.139,1.649,0.417,2.342
			c0.278,0.693,0.737,1.253,1.375,1.679c0.639,0.427,1.408,0.64,2.308,0.64c0.613,0,1.195-0.104,1.744-0.313
			s1.027-0.556,1.436-1.039c0.41-0.483,0.713-1.076,0.91-1.777c0.195-0.7,0.293-1.437,0.293-2.207c0-0.721-0.098-1.397-0.293-2.028
			c-0.197-0.632-0.498-1.138-0.904-1.519c-0.404-0.382-0.863-0.65-1.375-0.806S502.672,262.883,502.148,262.883z"/>
		<path class="st2" d="M510.799,274.06c0.295-4.729,0.442-8.505,0.442-11.324l-0.013-1.132c0.418,0.009,0.763,0.013,1.033,0.013
			c0.312,0,0.66-0.004,1.046-0.013l-0.099,2.041c0.304-0.508,0.572-0.892,0.806-1.149s0.498-0.472,0.793-0.64
			s0.629-0.299,1.002-0.394c0.373-0.094,0.761-0.141,1.162-0.141c0.344,0,0.685,0.041,1.021,0.123
			c0.008,0.541,0.037,1.147,0.086,1.819c-0.508-0.14-0.963-0.209-1.364-0.209c-0.484,0-0.918,0.08-1.304,0.24
			c-0.385,0.159-0.731,0.401-1.038,0.725c-0.308,0.324-0.56,0.712-0.757,1.162c-0.163,0.361-0.288,0.828-0.374,1.402
			c-0.087,0.573-0.154,1.619-0.203,3.135c-0.033,1.107-0.049,2.279-0.049,3.517v0.824c-0.443-0.017-0.8-0.024-1.07-0.024
			C511.672,274.035,511.299,274.043,510.799,274.06z"/>
	</g>
	<g id="logo-tpb">
		<path class="st1" d="M357,272.92c5.575-1.521,8.888-5.13,9.313-10.536c0.313-3.976,0.177-7.986,0.301-11.979
			c0.087-2.736,0.181-5.48,0.441-8.204c0.387-4.03,2.724-6.795,6.234-8.513c2.382-1.166,4.904-2.056,7.384-3.016
			c1.24-0.478,2.579-0.721,3.779-1.273c2.992-1.376,5.349-0.062,7.487,1.764c2.287,1.953,3.334,4.533,2.843,7.57
			c-0.424,2.65-1.821,4.829-3.684,6.688c-1.599,1.595-3.297,3.082-5.147,4.796c0.688,0.165,1.178,0.297,1.673,0.4
			c0.919,0.194,1.858,0.309,2.761,0.56c3.688,1.03,5.456,3.082,5.563,6.894c0.128,4.615,0.029,9.234,0.029,14.163
			c-7.586,1.051-14.665,3.527-20.76,8.612c-3.404-2.361-7.137-3.684-11.159-4.137c-3.449-0.387-6.914-0.482-10.227,0.721
			c-1.521,0.552-3.012,1.343-4.31,2.308c-1.755,1.302-1.838,2.262-0.894,4.269c0.231,0.494,0.503,0.981,0.651,1.504
			c0.239,0.845,0,1.685-0.828,1.961c-0.565,0.19-1.438,0.107-1.916-0.223c-1.207-0.832-1.669-2.2-1.162-3.535
			c0.573-1.508,1.331-3.016,2.324-4.281c1.545-1.966,3.412-3.676,5.027-5.592c0.845-1.001,1.677-2.13,2.11-3.346
			c1.018-2.856-1.224-5.369-4.096-4.755c-1.162,0.247-1.912,0.977-2.365,2.077c-0.181,0.445-0.519,0.832-0.849,1.343
			c-2.085-3.742,1.191-7.166,7.182-7.854c0.519-2.987-0.511-5.472-2.72-6.568c-2.53-1.257-5.089-0.482-7.796,2.369
			c-1.191-0.161-0.989-0.964-0.791-1.755c0.791-3.169,3.585-5.464,6.993-5.666c1.244-0.074,2.501-0.012,3.919-0.012
			c0.618-3.025,0.115-6.441,2.163-8.95c1.945-2.386,4.364-4.38,6.523-6.494c0.103,0.037,0.021-0.025-0.037-0.008
			c-4.426,1.306-8.806,0.795-13.215-0.185c-2.682-0.593-4.088,0.387-4.969,3.016c-0.214,0.643,0.021,1.739-1.281,1.401
			c-0.758-5.662,4.063-10.524,9.729-9.733c2.167,0.301,4.318,0.779,6.445,1.298c4.083,0.989,8.072,0.919,11.97-0.762
			c0.944-0.408,1.817-0.713,1.953,0.869c-1.76,1.042-3.511,2.06-5.246,3.115c-4.706,2.864-6.894,7.092-6.844,12.564
			c0.037,4.467,0.025,8.938-0.012,13.404c-0.012,1.566-0.148,3.128-0.239,4.689c-0.161,2.847-1.302,5.291-3.074,7.483
			C357.791,271.844,357.436,272.339,357,272.92z M378.929,252.786c3.239-1.558,6.148-4.117,7.656-6.581
			c3.358-5.489,1.273-11.562-4.747-13.796c-0.412-0.152-0.977-0.284-1.343-0.128c-4.141,1.751-6.667,3.408-6.733,7.998
			c-0.037,2.584-0.049,5.167-0.087,7.751c-0.058,3.989-0.124,7.982-0.202,11.97c-0.062,3.148-1.64,5.505-4.051,7.339
			c-1.492,1.133-3.107,2.11-4.656,3.169c-0.461,0.317-0.894,0.684-1.339,1.026c4.73-0.412,9.267,0.049,13.961,1.178
			c0-1.174,0-2.027,0-2.884c0-7.673,0-15.349,0-23.022c0-0.626-0.049-1.265,0.062-1.875c0.054-0.297,0.424-0.532,0.651-0.795
			c0.272,0.301,0.705,0.565,0.779,0.907c0.132,0.597,0.049,1.244,0.049,1.871C378.929,248.789,378.929,250.66,378.929,252.786z
			 M388.975,267.464c-2.979-1.644-7.747-1.784-9.955,0.07c0,1.92,0,3.865,0,5.913c1.179,0.358,1.982,1.652,3.432,1.055
			c2.155-0.89,4.302-1.792,6.523-2.72C388.975,270.361,388.975,268.968,388.975,267.464z M379.016,257.978
			c4.154,1.43,7.092,1.339,9.898-0.231c-0.091-3.358-1.265-4.784-5.097-6.111c-1.586,1.018-3.218,2.064-4.801,3.082
			C379.016,255.864,379.016,256.866,379.016,257.978z M379.065,259.87c0,1.875,0,3.704,0,5.761c3.334-1.216,6.544-0.997,9.836-0.058
			c0-2.097,0-3.919,0-5.736c-1.698,0.239-3.235,0.626-4.772,0.626C382.518,260.467,380.903,260.1,379.065,259.87z"/>
		<path class="st1" d="M180.217,280.823c-4.417-1.656-8.604-3.193-13.454-3.42c-0.132,4.364,0.008,8.633-0.087,13.071
			c-4.228,0-8.328,0-12.766,0c0-4.463,0-8.954,0-13.594c-5.864-0.062-10.775,1.636-15.176,5.085
			c-0.284-0.181-0.56-0.309-0.771-0.503c-0.161-0.148-0.243-0.383-0.416-0.672c4.294-5.085,9.346-8.958,16.202-10.141
			c0.078-4.088-0.445-7.784-3.243-10.833c-2.687-2.926-6.206-4.405-9.758-5.53c-0.49-1.162,0.136-1.553,0.853-2.003
			c3.581-2.25,7.108-4.59,10.718-6.787c1.24-0.754,1.743-1.665,1.57-3.062c-0.099-0.775-0.066-1.566-0.144-2.345
			c-0.519-5.093-4.656-7.706-9.568-6.033c-0.738,0.251-1.417,0.688-2.163,0.89c-0.346,0.095-0.787-0.161-1.64-0.375
			c1.974-2.048,3.915-3.416,6.247-4.116c3.272-0.985,6.494-0.775,9.589,0.787c2.559,1.294,4.149,3.272,4.512,6.164
			c0.078,0.614,0.21,1.22,0.391,2.254c1.286-0.853,2.419-1.475,3.383-2.299c0.391-0.334,0.552-1.084,0.585-1.656
			c0.082-1.562,0.008-3.136,0.062-4.702c0.029-0.824,0.087-0.824,1.5-0.886c0,1.776,0,3.556,0,5.814
			c3.461-1.92,6.305-4.067,9.585-6.02c4.347,2.851,8.946,5.505,12.234,9.861c1.529,2.023,2.176,4.368,2.205,6.824
			c0.095,7.916,0.095,15.831,0.066,23.747c-0.004,0.61-0.346,1.393-0.799,1.805C186.757,275.062,183.518,277.893,180.217,280.823z
			 M171.144,235.002c-1.232,0.816-2.316,1.582-3.453,2.266c-0.775,0.466-1.005,1.084-0.993,1.945c0.037,2.897,0.037,5.794,0,8.69
			c-0.012,0.874,0.288,1.413,1.026,1.916c4.524,3.086,10.405,3.115,15.036,0.074c0.816-0.536,1.162-1.096,1.096-2.097
			c-0.177-2.633-1.166-4.821-3.107-6.618C177.963,238.587,174.692,236.778,171.144,235.002z M164.959,239.164
			c-1.038,0.655-1.722,1.179-2.485,1.549c-1.24,0.606-1.496,1.566-1.492,2.868c0.037,14.57,0.021,29.145,0.033,43.715
			c0,0.597,0.111,1.195,0.177,1.846c1.306,0,2.464,0,3.77,0C164.959,272.574,164.959,256.087,164.959,239.164z M166.788,270.34
			c3.062,0.602,5.93,0.981,8.69,1.751c2.802,0.783,5.497,1.949,8.476,3.033c0-3.704-0.016-7.129,0.012-10.553
			c0.008-0.952-0.614-1.339-1.282-1.78c-4.788-3.148-11.134-3.074-15.897,0.985C166.788,265.915,166.788,268.094,166.788,270.34z
			 M183.806,261.58c0-3.7,0-6.943,0-10.532c-5.686,3.428-11.274,3.56-16.952,0.334c0,3.519,0,6.68,0,10.223
			C172.524,258.16,178.046,258.143,183.806,261.58z M146.494,251.319c1.467,0.874,2.703,1.541,3.861,2.324
			c1.108,0.75,2.139,1.624,3.527,2.695c0-1.961,0.012-3.432-0.004-4.904c-0.016-1.504-0.062-3.008-0.103-4.924
			C151.142,248.254,148.938,249.708,146.494,251.319z"/>
		<path class="st1" d="M55.289,229.563c1.566,0.317,1.463,1.092,1.302,1.908c-0.808,4.166-3.573,7.104-7.759,7.829
			c-2.287,0.396-4.652,0.342-7.149,0.499c0,11.29,0,22.7,0,34.395c3.552-1.038,6.799-2.472,9.354-5.114
			c1.352-1.397,2.448-3.045,3.655-4.582c0.288-0.363,0.499-0.878,0.874-1.047c0.235-0.107,0.948,0.231,1.01,0.482
			c0.103,0.396-0.124,0.898-0.272,1.335c-2.95,8.661-10.878,14.789-20.038,15.448c-4.178,0.301-8.287-0.025-12.304-1.339
			c-12.316-4.03-18.098-16.503-13.157-28.502c1.83-4.438,4.693-8.122,8.365-11.187c1.075-0.898,2.184-1.76,3.589-2.884
			c-3.832-0.696-7.174-0.47-10.425,1.121c-3.367,1.644-5.007,4.59-6.09,8.006c-1.211-0.082-1.389-0.63-1.15-1.566
			c1.187-4.648,3.432-8.567,7.623-11.154c2.86-1.764,5.991-2.909,9.337-2.786c4.215,0.157,8.423,0.659,12.617,1.146
			c3.968,0.462,7.907,1.15,11.871,1.636C50.122,233.646,53.546,233.461,55.289,229.563z M27.017,237.21
			c-1.228-0.494-2.027-0.251-2.806,0.457c-6.008,5.48-9.333,12.09-8.554,20.389c0.527,5.612,3.301,9.931,7.652,13.301
			c2.691-1.677,3.721-3.927,3.7-6.836c-0.049-6.964,0-13.928,0.008-20.891C27.017,241.525,27.017,239.419,27.017,237.21z
			 M39.804,274.601c0-11.904,0-23.553,0-35.417c-1.879-0.293-3.671-0.573-5.695-0.886c0,1.104,0,1.875,0,2.65
			c0,5.563,0.049,11.126-0.012,16.688c-0.074,6.428,0.927,5.995-5.262,11.398c-1.22,1.063-2.472,2.097-3.943,3.342
			C29.791,274.832,34.554,275.701,39.804,274.601z"/>
		<path class="st1" d="M66.464,290.107c0.227-0.363,0.363-0.882,0.688-1.055c1.24-0.663,2.604-1.113,3.803-1.838
			c1.801-1.088,3.614-2.209,5.217-3.556c2.003-1.681,3.02-3.968,3.041-6.63c0.058-7.446,0.099-14.888,0.173-22.334
			c0.025-2.353-0.915-4.051-3.247-5.138c-1.718,1.405-3.503,2.794-5.18,4.298c-0.387,0.346-0.573,1.1-0.577,1.669
			c-0.041,5.563-0.054,11.13,0.012,16.693c0.008,0.692,0.457,1.426,0.845,2.052c0.358,0.577,0.915,1.03,1.553,1.718
			c-2.015,1.632-3.943,3.189-5.995,4.854c-2.015-1.611-3.956-3.156-5.835-4.656c0.049-0.305,0.021-0.519,0.103-0.577
			c2.093-1.483,2.353-3.568,2.324-5.967c-0.107-8.855-0.041-17.71-0.045-26.57c0-1.253-0.07-2.505-0.082-3.762
			c-0.029-2.332-0.758-4.298-2.798-5.637c-0.239-0.157-0.383-0.462-0.552-0.709c-0.029-0.041,0.037-0.144,0.103-0.391
			c2.423-0.058,3.96,1.739,5.827,2.938c2.518-2.011,5.072-3.91,8.966-3.84c-0.585,0.676-0.853,1.108-1.232,1.397
			c-1.776,1.364-2.926,3.111-2.959,5.369c-0.066,4.508-0.021,9.02-0.021,13.948c3.527-2.794,6.869-5.439,10.359-8.204
			c2.683,1.537,4.838,3.408,5.274,6.692c0.124,0.931,0.255,1.871,0.255,2.81c0.008,6.424-0.029,12.852-0.025,19.276
			c0.004,4.178-1.879,7.462-5.11,9.848c-2.757,2.036-5.761,3.758-8.756,5.431c-1.751,0.981-3.709,1.595-5.571,2.373
			C66.839,290.445,66.653,290.276,66.464,290.107z"/>
		<path class="st1" d="M437.78,244.211c3.206,1.764,5.035,4.1,4.743,8.245c3.696-2.946,6.968-5.555,10.433-8.315
			c2.748,2.897,4.689,5.987,5.167,9.873c0.639,5.184-0.96,9.679-4.685,13.227c-2.423,2.308-5.167,4.314-7.924,6.226
			c-3.02,2.093-6.255,3.882-9.337,5.892c-1.166,0.762-2.299,1.661-3.222,2.695c-1.463,1.644-1.298,3.667,0.198,5.295
			c1.809,1.966,6.008,2.674,8.282,1.314c0.577-0.342,0.997-0.964,1.45-1.488c0.408-0.47,0.672-1.199,1.17-1.413
			c0.544-0.239,1.409-0.235,1.92,0.049c0.721,0.4,0.614,1.29,0.161,1.871c-0.47,0.602-1.092,1.154-1.759,1.516
			c-3.214,1.739-6.593,1.986-9.968,0.606c-3.96-1.619-5.06-5.835-2.551-9.313c0.045-0.062,0.087-0.136,0.144-0.185
			c3.264-2.781,3.688-6.469,3.56-10.462c-0.161-4.932-0.025-9.873-0.07-14.809c-0.012-1.084-0.115-2.205-0.424-3.239
			c-0.536-1.797-1.265-2.015-2.922-1.108c-0.198,0.107-0.404,0.202-0.824,0.408c-0.091-0.47-0.354-1.059-0.206-1.187
			C433.334,247.949,435.604,246.049,437.78,244.211z M442.556,272.924c0.173,0.078,0.35,0.152,0.523,0.231
			c4.458-3.272,7.755-7.351,8.344-13.116c0.391-3.861-1.1-7.104-3.717-10.03c-1.591,1.265-3.037,2.332-4.376,3.523
			c-0.404,0.358-0.738,1.038-0.742,1.578C442.539,261.044,442.556,266.982,442.556,272.924z"/>
		<path class="st1" d="M247.618,247.285c3.68,0.317,6.774-0.507,9.127-2.926c2.6,0.894,5.015,1.776,7.467,2.547
			c1.83,0.577,3.688,0.964,5.105-0.948c0.111-0.152,0.56-0.049,1.253-0.091c-0.453,0.886-0.754,1.549-1.121,2.167
			c-1.063,1.792-1.632,3.7-1.619,5.806c0.029,5.641,0.004,11.286,0.029,16.932c0.004,0.857,0.045,1.743,0.268,2.559
			c0.375,1.372,1.17,1.632,2.505,1.03c0.445-0.202,0.939-0.309,1.422-0.42c0.054-0.012,0.165,0.243,0.441,0.659
			c-2.357,2.031-4.751,4.096-7.112,6.127c-3.239-2.196-4.013-3.474-4.73-7.887c-1.949,1.183-3.54,2.662-5.241,3.968
			c-1.677,1.286-3.325,2.604-4.961,3.886c-6-3.845-7.71-9.716-4.421-15.868c1.467-2.744,3.416-5.229,5.328-8.101
			c-0.585-1.265-1.36-2.79-2.003-4.368C248.722,250.804,247.49,249.457,247.618,247.285z M255.596,274.984
			c1.479-1.183,2.93-2.25,4.261-3.449c0.461-0.416,0.861-1.146,0.886-1.747c0.099-2.411,0.041-4.829,0.041-7.331
			c-1.422-0.68-2.748-1.331-4.084-1.957c-1.385-0.651-2.777-1.281-4.141-1.908C249.007,265.156,250.078,270.979,255.596,274.984z
			 M260.693,252.3c-3.503-1.492-9.828-3.28-11.468-3.222c0.849,1.801,1.817,3.523,2.485,5.349c0.808,2.225,2.176,3.692,4.446,4.397
			c1.521,0.474,2.79,1.665,4.537,1.731C260.693,257.71,260.693,254.983,260.693,252.3z"/>
		<path class="st1" d="M426.592,245.851c-0.124,0.523-0.111,0.795-0.235,0.964c-2.134,2.872-2.46,6.164-2.386,9.601
			c0.087,3.993,0.008,7.99,0.029,11.983c0.008,1.331,0.021,2.67,0.157,3.989c0.247,2.378,1.067,2.74,3.222,1.549
			c0.19-0.103,0.424-0.124,0.614-0.177c0.993,0.799,0.198,1.244-0.293,1.669c-2.003,1.751-4.03,3.474-6.028,5.192
			c-2.975-1.541-4.03-3.202-4.854-7.8c-3.614,2.501-6.795,5.369-10.231,7.854c-7.228-5.068-7.096-10.833-4.257-16.07
			c1.446-2.666,3.35-5.085,5.237-7.895c-0.597-1.269-1.364-2.79-2.031-4.355c-0.655-1.533-1.689-2.938-1.957-5.056
			c3.742,0.264,6.964-0.404,9.329-2.93c2.678,0.902,5.171,1.776,7.685,2.575c1.78,0.569,3.531,0.82,4.883-0.972
			C425.587,245.818,426.024,245.905,426.592,245.851z M416.987,262.453c-1.471-0.701-2.802-1.343-4.141-1.97
			c-1.385-0.647-2.773-1.273-4.129-1.895c-3.239,5.806-2.794,13.058,3.198,16.268c1.323-1.043,2.658-2.122,4.026-3.16
			c0.742-0.565,1.092-1.216,1.067-2.188C416.946,267.241,416.987,264.975,416.987,262.453z M405.178,248.575
			c1.417,2.996,2.608,5.53,3.82,8.048c0.165,0.338,0.387,0.75,0.696,0.902c2.283,1.121,4.599,2.184,7.149,3.383
			c0-3.181,0-5.942,0-8.789C413.032,250.961,409.327,249.836,405.178,248.575z"/>
		<path class="st1" d="M100.883,266.228c0,2.155,0,4.182,0,6.354c2.324,0.935,4.615,1.92,6.96,2.744
			c0.544,0.19,1.372-0.008,1.912-0.309c1.224-0.688,2.332-1.582,3.531-2.316c0.342-0.21,0.836-0.165,1.628-0.301
			c-1.327,1.727-7.726,6.37-10.932,8.155c-4.108-1.475-8.052-2.889-12.279-4.409c2.534-1.978,2.114-4.722,2.122-7.347
			c0.016-5.485,0.004-10.969,0.004-16.454c0-0.775,0-1.549,0-2.217c4.285-1.982,8.385-3.882,12.757-5.905
			c3.123,3.659,6.3,7.376,9.613,11.253c-2.761,1.937-5.316,3.729-7.866,5.517C105.84,262.746,103.343,264.501,100.883,266.228z
			 M109.846,257.616c-2.996-3.309-5.695-6.391-8.876-9.16c0,4.998,0,9.992,0,15.386
			C104.056,261.674,106.846,259.717,109.846,257.616z"/>
		<path class="st1" d="M310.564,244.224c3.148,3.684,6.292,7.359,9.613,11.245c-5.258,3.692-10.355,7.277-15.411,10.825
			c0,2.097,0,4.051,0,6.239c2.411,0.972,4.838,2.011,7.318,2.901c0.462,0.165,1.203-0.14,1.698-0.437
			c1.211-0.721,2.328-1.595,3.531-2.324c0.33-0.202,0.841-0.107,1.265-0.148c0.074,0.202,0.144,0.404,0.218,0.606
			c-3.622,2.534-7.248,5.068-10.705,7.491c-4.178-1.512-8.175-2.959-12.387-4.483c2.254-1.821,2.097-4.298,2.11-6.704
			c0.025-5.645,0.008-11.286,0.008-16.932c0-0.849,0-1.694,0-2.39C302.2,248.089,306.304,246.193,310.564,244.224z M305.327,248.18
			c-0.861,3.915-0.713,13.821-0.161,15.489c1.438-1.001,2.851-1.97,4.244-2.963c1.43-1.014,2.839-2.052,4.36-3.152
			C310.816,254.274,308.072,251.229,305.327,248.18z"/>
		<path class="st1" d="M278.758,249.543c-1.174-0.111-2.089-0.198-3.301-0.317c0.165-0.68,0.136-1.352,0.453-1.751
			c2.913-3.688,5.88-7.339,8.855-10.977c0.202-0.247,0.618-0.321,1.162-0.585c0,3.255,0,6.255,0,9.535c2.192,0,4.339,0,6.651,0
			c0,1.397,0,2.514,0,3.931c-2.25,0-4.401,0-6.795,0c0,1.055,0,1.821,0,2.584c0,6.033,0.062,12.069-0.037,18.102
			c-0.029,1.813,0.309,3.189,2.031,4.038c0.618,0.305,1.158,0.771,1.553,1.043c1.24,0.185,1.78-1.673,3.325-0.482
			c-2.398,2.299-5.027,4.063-7.182,5.884c-3.111-1.92-6.008-3.709-8.843-5.456c0.593-1.121,1.521-2.324,1.879-3.684
			c0.371-1.405,0.231-2.95,0.235-4.438C278.766,261.258,278.758,255.543,278.758,249.543z"/>
		<path class="st1" d="M232.895,275.38c1.203-0.869,2.332-1.681,3.474-2.505c0.972,0.668,0.597,1.158-0.029,1.661
			c-2.563,2.06-5.122,4.125-7.512,6.049c-3.128-1.9-6.103-3.713-9.243-5.62c2.744-1.825,2.402-4.817,2.415-7.693
			c0.016-4.079,0.021-8.155-0.008-12.234c-0.008-1.092-0.029-2.213-0.251-3.276c-0.334-1.615-1.257-1.974-2.748-1.261
			c-0.404,0.194-0.845,0.317-1.38,0.284c0.511-1.656,1.97-2.361,3.037-3.399c1.121-1.088,2.349-2.064,3.498-3.062
			c2.86,1.516,4.257,3.202,5.035,6.234c2.674-1.9,4.85-4.232,7.611-6.35c1.797,1.945,3.371,4.034,5.171,6.148
			c-1.743,1.558-3.358,3-5.159,4.607c-1.45-1.821-2.798-3.515-4.335-5.447c-1.047,0.931-2.064,1.739-2.95,2.674
			c-0.326,0.346-0.478,0.985-0.482,1.492c-0.033,5.88-0.012,11.764-0.033,17.644c-0.004,0.857,0.231,1.496,0.972,1.982
			C230.958,273.946,231.886,274.659,232.895,275.38z"/>
		<path class="st1" d="M210.195,248.925c-0.128,0.379-0.128,0.589-0.231,0.659c-2.122,1.475-2.353,3.564-2.283,5.958
			c0.148,5.085,0.029,10.178,0.066,15.263c0.008,1.01,0.095,2.044,0.346,3.016c0.391,1.488,1.03,1.681,2.406,0.898
			c0.338-0.194,0.63-0.474,0.981-0.618c0.148-0.062,0.424,0.087,0.598,0.206c0.107,0.07,0.132,0.264,0.297,0.63
			c-2.336,1.928-4.718,3.894-7.071,5.831c-2.905-1.677-4.314-4.001-4.323-7.199c-0.008-5.715-0.082-11.426-0.107-17.142
			c-0.016-4.199-0.004-4.199-2.427-7.372c1.879-1.574,3.774-3.161,5.905-4.945C206.363,245.761,208.312,247.368,210.195,248.925z"/>
		<path class="st1" d="M205.168,239.959c0.668-2.802,1.216-5.114,1.784-7.516c1.335,0,2.555,0,4.174,0
			c-0.898,1.488-1.619,2.893-2.538,4.154C207.743,237.75,207.455,239.506,205.168,239.959z"/>
	</g>
</g>
</svg>
